<svg width="17" height="18" viewBox="0 0 17 18" fill="none" xmlns="http://www.w3.org/2000/svg">
<path d="M0.0566406 6.77276C0.0566406 4.72956 0.0566406 3.70794 0.454277 2.92754C0.804051 2.24107 1.36217 1.68296 2.04863 1.33318C2.82904 0.935547 3.85065 0.935547 5.89386 0.935547H10.3486C12.3919 0.935547 13.4135 0.935547 14.1938 1.33318C14.8803 1.68296 15.4384 2.24107 15.7882 2.92754C16.1858 3.70794 16.1858 4.72956 16.1858 6.77276V11.2275C16.1858 13.2708 16.1858 14.2924 15.7882 15.0727C15.4384 15.7592 14.8803 16.3173 14.1938 16.6671C13.4135 17.0648 12.3919 17.0648 10.3486 17.0648H5.89386C3.85065 17.0648 2.82904 17.0648 2.04863 16.6671C1.36217 16.3173 0.804051 15.7592 0.454277 15.0727C0.0566406 14.2924 0.0566406 13.2708 0.0566406 11.2275V6.77276Z" fill="#330000"/>
<path d="M7.87223 11.0719H5.37283L4.8643 12.6921C4.85019 12.7523 4.79477 12.7949 4.73446 12.7919H3.46852C3.39632 12.7919 3.37108 12.7513 3.39278 12.6699L5.55676 6.27774C5.57842 6.21115 5.60008 6.13535 5.62168 6.05026C5.65003 5.90216 5.66448 5.7517 5.665 5.60083C5.65878 5.55625 5.69795 5.51687 5.74069 5.52312H7.4611C7.51151 5.52312 7.54031 5.54162 7.54763 5.5786L10.0038 12.681C10.0254 12.755 10.0038 12.792 9.9389 12.7919H8.53226C8.48295 12.7976 8.43583 12.7638 8.42408 12.7143L7.87223 11.0719ZM5.76235 9.67357H7.47193C7.19106 8.71377 6.87406 7.76658 6.61714 6.79935C6.33995 7.76825 6.03753 8.73324 5.76235 9.67357Z" fill="#FF9A00"/>
<path d="M11.4647 6.69925C11.3543 6.7038 11.2443 6.68438 11.1417 6.64233C11.0392 6.60028 10.9464 6.53646 10.8696 6.45512C10.793 6.37021 10.7334 6.27067 10.6944 6.16209C10.6554 6.05356 10.6377 5.93818 10.6423 5.82257C10.6384 5.70811 10.658 5.59411 10.7 5.48797C10.742 5.38184 10.8053 5.28598 10.8858 5.20665C10.9655 5.12814 11.0597 5.06663 11.1628 5.02568C11.2658 4.98472 11.3758 4.96514 11.4863 4.96806C11.746 4.96806 11.9498 5.04759 12.0976 5.20665C12.1723 5.28931 12.2303 5.38626 12.2684 5.49195C12.3064 5.59762 12.3238 5.71001 12.3194 5.82257C12.324 5.93858 12.3057 6.05442 12.2657 6.16306C12.2258 6.27171 12.1649 6.37102 12.0868 6.45512C12.0052 6.53766 11.9077 6.60195 11.8007 6.644C11.6936 6.686 11.5792 6.70483 11.4647 6.69925ZM10.7181 12.6808V7.37621C10.7181 7.30962 10.7468 7.27632 10.8046 7.27632H12.1355C12.1931 7.27632 12.222 7.30962 12.2221 7.37621V12.6808C12.2221 12.7548 12.1932 12.7918 12.1355 12.7918H10.8155C10.7506 12.7918 10.7181 12.7548 10.7181 12.6808Z" fill="#FF9A00"/>
</svg>
