<svg width="16" height="16" viewBox="0 0 16 16" fill="none" xmlns="http://www.w3.org/2000/svg">
<path d="M3.26228 12.733L0.526478 9.99724C0.20213 9.66349 0 9.19342 0 8.73393C0 8.52122 0.119868 8.18865 0.210356 7.9971L2.73581 2.73584L3.26228 12.733Z" fill="#01579B"/>
<path d="M12.6283 3.26228L9.89246 0.526478C9.65389 0.286743 9.15562 0 8.73491 0C8.37295 0 8.01805 0.0728608 7.78772 0.210356L2.73682 2.73581L12.6283 3.26228ZM6.52441 15.9953H13.1547V13.1537L8.20843 11.5755L3.68401 13.1537L6.52441 15.9953Z" fill="#40C4FF"/>
<path d="M2.73682 11.2604C2.73682 12.1041 2.84258 12.3121 3.26329 12.734L3.68401 13.1547H13.1547L8.52455 7.89348L2.73682 2.73682V11.2604Z" fill="#29B6F6"/>
<path d="M11.1548 2.73584H2.73584L13.1538 13.1538H15.9953V6.62919L12.6285 3.26232C12.156 2.78755 11.7353 2.73584 11.1548 2.73584Z" fill="#01579B"/>
<path opacity="0.2" d="M3.36808 12.8388C2.94737 12.4158 2.84161 11.9997 2.84161 11.2606V2.84161L2.73584 2.73584V11.2594C2.73702 11.9997 2.73702 12.2042 3.36808 12.8388Z" fill="white"/>
<path opacity="0.2" d="M15.8909 6.52441V13.049H13.0493L13.1551 13.1536H15.9967V6.63018L15.8909 6.52441Z" fill="#263238"/>
<path opacity="0.2" d="M12.6283 3.26232C12.1065 2.74054 11.6787 2.73584 11.05 2.73584H2.73682L2.84258 2.84161H11.0512C11.3638 2.84161 12.157 2.78872 12.6283 3.26232Z" fill="white"/>
<path opacity="0.2" d="M15.8905 6.52457L12.6282 3.26228L9.89242 0.526478C9.65386 0.286743 9.15559 0 8.73487 0C8.37292 0 8.01802 0.0728608 7.78768 0.210356L2.73678 2.73581L0.211333 7.99706C0.120844 8.18862 0.000976562 8.52119 0.000976562 8.7339C0.000976562 9.19339 0.203107 9.66346 0.527455 9.99721L3.04938 12.5003C3.10931 12.5744 3.17982 12.6496 3.26444 12.733L3.3702 12.8388L3.68632 13.1549L6.42213 15.8907L6.5279 15.9965H13.1582V13.1549H15.9998V6.63033L15.8905 6.52457Z" fill="url(#paint0_radial_175_1474)"/>
<defs>
<radialGradient id="paint0_radial_175_1474" cx="0" cy="0" r="1" gradientUnits="userSpaceOnUse" gradientTransform="translate(7.9998 7.99784) scale(7.99883 7.99882)">
<stop stop-color="white" stop-opacity="0.1"/>
<stop offset="1" stop-color="white" stop-opacity="0"/>
</radialGradient>
</defs>
</svg>
