<svg width="16" height="16" viewBox="0 0 16 16" fill="none" xmlns="http://www.w3.org/2000/svg">
<path d="M6.89166 0.0592041C3.87632 0.523103 1.41324 2.54437 0.474398 5.33881C0.0878161 6.46542 -0.088907 7.82398 0.0436353 8.74073C0.275584 10.3312 0.651121 11.3474 1.39115 12.4409C1.66728 12.8495 1.70041 12.9379 1.56787 13.1036C1.14815 13.6338 0.949341 13.8767 0.573805 14.2965C0.341856 14.5395 0.154087 14.7825 0.154087 14.8266C0.154087 14.8598 0.341856 14.8708 0.573805 14.8377C0.794709 14.8156 1.53474 14.7272 2.19745 14.661C3.41242 14.5284 3.42347 14.5284 3.85423 14.8045C5.14652 15.5998 6.37253 15.9312 8.0514 15.9312C9.48728 15.9312 10.4593 15.7102 11.5859 15.1469C13.7286 14.0645 15.1535 12.3525 15.8162 10.033C16.0702 9.13836 16.0592 6.66423 15.7941 5.78062C15.5732 5.07372 15.0761 4.02443 14.7006 3.47217C14.1263 2.64378 12.4253 1.08641 12.0939 1.08641C12.0166 1.08641 11.9724 2.51124 11.9504 5.13999L11.9172 9.20463L11.63 9.81211C10.8679 11.4468 8.90188 12.474 7.20092 12.1316C5.78714 11.8555 4.70471 11.0271 4.10827 9.74584C3.799 9.08313 3.77691 8.97268 3.82109 7.96757C3.85423 7.05081 3.89841 6.79677 4.16349 6.27765C4.58321 5.46031 5.25697 4.7755 6.06327 4.37788C6.63762 4.0907 6.88061 4.03547 7.86363 3.99129L8.99024 3.92502V5.32776V6.71946H8.16185C7.3666 6.71946 7.32242 6.7305 6.95793 7.10604C6.74807 7.3159 6.5603 7.62516 6.53821 7.79084C6.37253 9.1494 7.96304 9.98884 8.84666 9.00581C9.28846 8.51982 9.3216 8.16638 9.3216 4.06861V0.11443L9.07861 0.0481586C8.81352 -0.0181122 7.35556 -0.0181122 6.89166 0.0592041Z" fill="#24ADE3"/>
</svg>
