<svg width="16" height="10" viewBox="0 0 16 10" fill="none" xmlns="http://www.w3.org/2000/svg">
<path d="M15.9247 0.320147H15.6526C15.316 0.320147 14.999 0.47706 14.7943 0.744133L12.0083 4.3874L9.22232 0.744133C9.01833 0.47706 8.70098 0.320147 8.36474 0.320147H8.09255L11.6058 4.91418L8.01729 9.60683H8.28949C8.62605 9.60683 8.94308 9.44992 9.14739 9.18285L12.0086 5.44128L14.8699 9.18285C15.0742 9.44992 15.3912 9.60683 15.7278 9.60683H16L12.4115 4.91418L15.9247 0.320147ZM6.81739 7.76295C5.99952 9.00576 4.3894 9.6427 2.85005 9.08102C1.4958 8.5869 0.640461 7.24065 0.640461 5.79897V5.44384H4.48323H8.00576V4.12C8.00576 2.0369 6.46289 0.21319 4.38876 0.0181698C2.00881 -0.205671 0 1.66832 0 4.0028V5.78744C0 7.5074 1.02954 9.10631 2.64799 9.68881C4.76247 10.4497 6.98647 9.31414 7.73837 7.36522H7.53406C7.24233 7.36522 6.9775 7.51925 6.81739 7.76295ZM0.640461 4.0028C0.640461 2.14866 2.14875 0.640378 4.00288 0.640378C5.85702 0.640378 7.3653 2.14866 7.3653 4.0028V4.80338H0.640461V4.0028Z" fill="black"/>
</svg>
