<svg width="11" height="18" viewBox="0 0 11 18" fill="none" xmlns="http://www.w3.org/2000/svg">
<path d="M5.58203 9.00023C5.58203 7.5156 6.78556 6.31201 8.27021 6.31201C9.75483 6.31201 10.9584 7.5156 10.9584 9.00023C10.9584 10.4849 9.75483 11.6885 8.27021 11.6885C6.78556 11.6885 5.58203 10.4849 5.58203 9.00023Z" fill="#1ABCFE"/>
<path d="M0.205566 14.3762C0.205566 12.8916 1.4091 11.688 2.89375 11.688H5.58193V14.3762C5.58193 15.8609 4.3784 17.0644 2.89375 17.0644C1.4091 17.0644 0.205566 15.8609 0.205566 14.3762Z" fill="#0ACF83"/>
<path d="M5.58203 0.935547V6.31197H8.27021C9.75487 6.31197 10.9584 5.10843 10.9584 3.62377C10.9584 2.13911 9.75487 0.935547 8.27021 0.935547H5.58203Z" fill="#FF7262"/>
<path d="M0.205566 3.62377C0.205566 5.10843 1.4091 6.31198 2.89375 6.31198H5.58193V0.935547H2.89375C1.4091 0.935547 0.205566 2.1391 0.205566 3.62377Z" fill="#F24E1E"/>
<path d="M0.205566 9.00023C0.205566 10.4849 1.4091 11.6885 2.89375 11.6885H5.58193V6.31201H2.89375C1.4091 6.31201 0.205566 7.5156 0.205566 9.00023Z" fill="#A259FF"/>
</svg>
