<svg width="16" height="20" viewBox="0 0 16 20" fill="none" xmlns="http://www.w3.org/2000/svg">
<mask id="mask0_175_1458" style="mask-type:luminance" maskUnits="userSpaceOnUse" x="0" y="0" width="16" height="20">
<path d="M16 9.14369L10.6678 14.4759L16 19.8092H9.9046L7.61955 17.5241L4.57126 14.4759L9.9046 9.14369H16ZM9.9046 0L0 9.9046L3.04828 12.9529L16 0H9.9046Z" fill="white"/>
</mask>
<g mask="url(#mask0_175_1458)">
<path d="M15.9998 9.14355H9.90443L4.57227 14.4769L7.61938 17.524L15.9998 9.14355Z" fill="#54C5F8"/>
</g>
<mask id="mask1_175_1458" style="mask-type:luminance" maskUnits="userSpaceOnUse" x="0" y="0" width="16" height="20">
<path d="M16 9.14369L10.6678 14.4759L16 19.8092H9.9046L7.61955 17.5241L4.57126 14.4759L9.9046 9.14369H16ZM9.9046 0L0 9.9046L3.04828 12.9529L16 0H9.9046Z" fill="white"/>
</mask>
<g mask="url(#mask1_175_1458)">
<path d="M3.04828 12.9529L0 9.9046L9.9046 0H16L3.04828 12.9529Z" fill="#54C5F8"/>
</g>
<mask id="mask2_175_1458" style="mask-type:luminance" maskUnits="userSpaceOnUse" x="0" y="0" width="16" height="20">
<path d="M16 9.14369L10.6678 14.4759L16 19.8092H9.9046L7.61955 17.5241L4.57126 14.4759L9.9046 9.14369H16ZM9.9046 0L0 9.9046L3.04828 12.9529L16 0H9.9046Z" fill="white"/>
</mask>
<g mask="url(#mask2_175_1458)">
<path d="M7.61963 17.5242L9.90468 19.8092H16.0001L10.6656 14.4771L7.61963 17.5242Z" fill="#01579B"/>
</g>
<mask id="mask3_175_1458" style="mask-type:luminance" maskUnits="userSpaceOnUse" x="0" y="0" width="16" height="20">
<path d="M16 9.14369L10.6678 14.4759L16 19.8092H9.9046L7.61955 17.5241L4.57126 14.4759L9.9046 9.14369H16ZM9.9046 0L0 9.9046L3.04828 12.9529L16 0H9.9046Z" fill="white"/>
</mask>
<g mask="url(#mask3_175_1458)">
<path d="M7.61963 17.5242L12.1396 15.9592L10.6656 14.4771L7.61963 17.5242Z" fill="url(#paint0_linear_175_1458)"/>
</g>
<mask id="mask4_175_1458" style="mask-type:luminance" maskUnits="userSpaceOnUse" x="0" y="0" width="16" height="20">
<path d="M16 9.14369L10.6678 14.4759L16 19.8092H9.9046L7.61955 17.5241L4.57126 14.4759L9.9046 9.14369H16ZM9.9046 0L0 9.9046L3.04828 12.9529L16 0H9.9046Z" fill="white"/>
</mask>
<g mask="url(#mask4_175_1458)">
<path d="M4.5708 14.4761L7.61778 11.4291L10.6648 14.4761L7.61778 17.5231L4.5708 14.4761Z" fill="#29B6F6"/>
</g>
<path d="M16 9.14369L10.6678 14.4759L16 19.8092H9.9046L7.61955 17.5241L4.57126 14.4759L9.9046 9.14369H16ZM9.9046 0L0 9.9046L3.04828 12.9529L16 0H9.9046Z" fill="url(#paint1_radial_175_1458)"/>
<defs>
<linearGradient id="paint0_linear_175_1458" x1="8.50813" y1="18.1126" x2="10.778" y2="15.8427" gradientUnits="userSpaceOnUse">
<stop stop-color="#1A237E" stop-opacity="0.4"/>
<stop offset="1" stop-color="#1A237E" stop-opacity="0"/>
</linearGradient>
<radialGradient id="paint1_radial_175_1458" cx="0" cy="0" r="1" gradientUnits="userSpaceOnUse" gradientTransform="translate(1.53667 1.90984) scale(24.3863 24.3863)">
<stop stop-color="white" stop-opacity="0.1"/>
<stop offset="1" stop-color="white" stop-opacity="0"/>
</radialGradient>
</defs>
</svg>
