<svg width="16" height="16" viewBox="0 0 16 16" fill="none" xmlns="http://www.w3.org/2000/svg">
<path d="M15.6982 7.2871L8.71205 0.301769C8.6164 0.206097 8.50283 0.130206 8.37784 0.0784278C8.25285 0.0266499 8.11888 0 7.98359 0C7.8483 0 7.71434 0.0266499 7.58935 0.0784278C7.46436 0.130206 7.35079 0.206097 7.25513 0.301769L5.80453 1.75251L7.64457 3.59255C8.07235 3.44818 8.56263 3.54495 8.90347 3.88593C9.06589 4.04851 9.17929 4.25352 9.2307 4.4775C9.28211 4.70149 9.26945 4.93542 9.19418 5.15256L10.9677 6.92603C11.3967 6.77815 11.8917 6.87365 12.2344 7.21688C12.3483 7.33069 12.4387 7.46583 12.5003 7.61457C12.5619 7.76331 12.5937 7.92274 12.5937 8.08375C12.5937 8.24476 12.5619 8.40419 12.5003 8.55293C12.4387 8.70167 12.3483 8.8368 12.2344 8.95061C12.0341 9.1513 11.7704 9.27635 11.4882 9.30446C11.2061 9.33257 10.9229 9.262 10.6869 9.10478C10.4509 8.94756 10.2767 8.7134 10.194 8.44218C10.1113 8.17096 10.1251 7.87944 10.2332 7.61728L8.57934 5.96332V10.3157C8.6992 10.3749 8.80866 10.4532 8.90347 10.5474C9.38237 11.0263 9.38237 11.8021 8.90347 12.2817C8.42457 12.7605 7.64822 12.7605 7.16974 12.2817C6.69084 11.8021 6.69084 11.0263 7.16974 10.5476C7.28456 10.4327 7.42103 10.3417 7.57126 10.28V5.88734C7.42077 5.82604 7.28416 5.73505 7.1696 5.6198C6.99755 5.44781 6.88057 5.22851 6.83355 4.98982C6.78653 4.75112 6.81161 4.50384 6.90558 4.27945L5.09152 2.4651L0.301817 7.2548C0.108565 7.44809 0 7.71022 0 7.98354C0 8.25687 0.108565 8.519 0.301817 8.71229L7.28757 15.6978C7.48083 15.891 7.74291 15.9995 8.01617 15.9995C8.28944 15.9995 8.55152 15.891 8.74478 15.6978L15.6982 8.74529C15.8915 8.55196 16 8.28981 16 8.01648C16 7.74314 15.8915 7.48099 15.6982 7.28766" fill="#F05133"/>
</svg>
