<svg width="7" height="16" viewBox="0 0 7 16" fill="none" xmlns="http://www.w3.org/2000/svg">
<path d="M4.80118 1.78331C4.17101 0.986578 3.62837 0.177397 3.52334 0.00933671C3.51167 -0.00311223 3.49416 -0.00311223 3.4825 0.00933671C3.37163 0.177397 2.82899 0.986578 2.19882 1.78331C-3.2043 9.13441 3.05071 14.0953 3.05071 14.0953L3.10323 14.1327C3.14991 14.8983 3.2666 16 3.2666 16H3.5H3.7334C3.7334 16 3.85009 14.9045 3.89677 14.1327L3.94929 14.0891C3.94929 14.0953 10.2043 9.13441 4.80118 1.78331ZM3.5 13.9833C3.5 13.9833 3.21992 13.7281 3.14407 13.5974V13.5849L3.4825 5.58024C3.4825 5.55534 3.5175 5.55534 3.5175 5.58024L3.85009 13.5849V13.5974C3.77424 13.7281 3.5 13.9833 3.5 13.9833Z" fill="#00684A"/>
</svg>
