<svg width="16" height="16" viewBox="0 0 16 16" fill="none" xmlns="http://www.w3.org/2000/svg">
<path fill-rule="evenodd" clip-rule="evenodd" d="M14.7358 12.2183C13.8659 12.195 13.1873 12.2824 12.6248 12.5269C12.4624 12.591 12.2015 12.591 12.1783 12.8006C12.2653 12.888 12.2769 13.0278 12.3522 13.15C12.4798 13.3713 12.7118 13.6625 12.9206 13.8139C13.1467 13.9886 13.3787 14.1633 13.6165 14.3147C14.0398 14.5768 14.5212 14.7282 14.9329 14.9903C15.1707 15.1417 15.4143 15.3397 15.652 15.5027C15.7738 15.5901 15.8492 15.7299 16 15.7881V15.7531C15.9246 15.6541 15.9014 15.5144 15.826 15.4037C15.7158 15.2931 15.6056 15.1941 15.5013 15.0893C15.1881 14.6642 14.7937 14.2915 14.3704 13.9828C14.0224 13.744 13.2569 13.4121 13.1178 13.0103C13.1178 13.0103 13.1062 12.9986 13.0946 12.987C13.3323 12.9637 13.6165 12.8763 13.8485 12.8123C14.2196 12.7133 14.556 12.7366 14.9387 12.6376C15.1127 12.591 15.2867 12.5386 15.4607 12.4862V12.3872C15.2635 12.1892 15.1243 11.9271 14.9155 11.7408C14.3588 11.2574 13.7499 10.7915 13.1178 10.3955C12.7814 10.1743 12.3464 10.0345 11.9869 9.84814C11.8593 9.78408 11.6389 9.74914 11.5635 9.63849C11.3664 9.39973 11.2562 9.07944 11.117 8.79409C10.8038 8.19427 10.4965 7.52457 10.2239 6.88981C10.0267 6.46469 9.91074 6.03958 9.66717 5.64358C8.54791 3.78589 7.32426 2.66196 5.45689 1.5555C5.05674 1.32838 4.57539 1.22939 4.06506 1.1071C3.79249 1.09545 3.51992 1.07215 3.24735 1.06633C3.07338 0.990622 2.8994 0.780977 2.74862 0.681978C2.12809 0.285982 0.527487 -0.564245 0.0693427 0.559687C-0.226421 1.27015 0.504289 1.96897 0.753659 2.33003C0.939236 2.58044 1.17701 2.86578 1.31039 3.15114C1.38578 3.33749 1.40898 3.53549 1.48437 3.73348C1.65835 4.21683 1.82073 4.75259 2.0527 5.201C2.17449 5.42811 2.30207 5.6727 2.45285 5.87652C2.53984 5.99881 2.69062 6.05123 2.72542 6.24922C2.57464 6.47052 2.56304 6.79663 2.47605 7.07033C2.0817 8.30491 2.23828 9.83649 2.78921 10.745C2.96319 11.0187 3.37494 11.6185 3.93167 11.3914C4.41881 11.1934 4.31443 10.5702 4.45361 10.0228C4.48841 9.8889 4.46521 9.80155 4.529 9.71419V9.73749C4.67978 10.0403 4.83636 10.3373 4.97555 10.646C5.3119 11.1817 5.90343 11.7408 6.39057 12.1076C6.65154 12.3056 6.86031 12.6434 7.18508 12.7657V12.7308H7.16188C7.09808 12.6318 6.9995 12.591 6.91251 12.5153C6.71533 12.3173 6.50076 12.0785 6.34418 11.8572C5.88603 11.2458 5.48588 10.5644 5.12633 9.8656C4.95235 9.52784 4.80157 9.15514 4.65659 8.81738C4.59279 8.68926 4.59279 8.49127 4.48261 8.42138C4.32023 8.66015 4.08246 8.86979 3.96067 9.16096C3.7519 9.63267 3.73449 10.2092 3.6533 10.8148C3.61271 10.8265 3.63011 10.8148 3.61271 10.8381C3.26476 10.7508 3.14297 10.3897 3.01538 10.0869C2.69062 9.31238 2.63263 8.06615 2.9168 7.16934C2.99219 6.94222 3.32275 6.22011 3.18936 5.99882C3.12557 5.78917 2.9052 5.6727 2.78921 5.50382C2.65003 5.29418 2.49345 5.03212 2.40066 4.80501C2.13969 4.19354 2.00631 3.51219 1.72794 2.90072C1.59456 2.61537 1.36838 2.31837 1.18281 2.05632C0.974033 1.75932 0.747861 1.5555 0.585481 1.20609C0.533288 1.0838 0.457897 0.885803 0.539088 0.757687C0.562285 0.670334 0.602878 0.635392 0.689868 0.617922C0.829051 0.495628 1.235 0.65286 1.37418 0.716918C1.78013 0.879975 2.11649 1.03721 2.45285 1.26433C2.60364 1.37497 2.76602 1.5788 2.96319 1.63703H3.19516C3.54312 1.71274 3.93747 1.66032 4.26223 1.75932C4.83636 1.94567 5.3641 2.21938 5.82804 2.51637C7.25467 3.42484 8.43192 4.71182 9.22643 6.25505C9.35981 6.50546 9.412 6.7384 9.53379 7.00045C9.75996 7.53621 10.0441 8.08362 10.2761 8.60773C10.5023 9.1202 10.7226 9.64432 11.0474 10.0753C11.2098 10.3024 11.8651 10.4247 12.1551 10.547C12.3696 10.646 12.7118 10.7333 12.909 10.8498C13.2801 11.0769 13.6513 11.3389 13.9992 11.5952C14.1616 11.7291 14.7068 12.0028 14.7358 12.2183Z" fill="#00758F"/>
<path fill-rule="evenodd" clip-rule="evenodd" d="M3.636 2.71984C3.45042 2.71984 3.32284 2.74314 3.18945 2.77225V2.79555H3.21265C3.29964 2.97025 3.45042 3.09254 3.56061 3.24395C3.6476 3.41866 3.72299 3.59336 3.80998 3.76807C3.82158 3.75642 3.83318 3.74477 3.83318 3.74477C3.98396 3.63412 4.06515 3.45942 4.06515 3.19736C4.00136 3.12166 3.98976 3.04596 3.93177 2.97025C3.86217 2.85961 3.72299 2.80719 3.636 2.71984Z" fill="#00758F"/>
</svg>
