<svg width="16" height="19" viewBox="0 0 16 19" fill="none" xmlns="http://www.w3.org/2000/svg">
<path d="M8.00314 18.02C7.7616 18.02 7.5217 17.9567 7.30994 17.8349L5.10342 16.5298C4.77386 16.3457 4.93467 16.2805 5.04337 16.243C5.48278 16.0893 5.57196 16.0546 6.04099 15.7885C6.09029 15.7604 6.15481 15.7703 6.20527 15.8001L7.9004 16.805C7.96162 16.8381 8.04848 16.8381 8.10522 16.805L14.7147 12.9935C14.7759 12.9588 14.8156 12.8877 14.8156 12.815V5.19534C14.8156 5.11931 14.7759 5.05154 14.7133 5.01352L8.10655 1.20535C8.04533 1.16898 7.96427 1.16898 7.90305 1.20535L1.29757 5.01352C1.23354 5.04989 1.19285 5.12096 1.19285 5.19369V12.8134C1.19285 12.8861 1.23255 12.9555 1.29542 12.9902L3.10537 14.0348C4.0881 14.5257 4.68866 13.9472 4.68866 13.3654V5.84491C4.68866 5.73747 4.77303 5.65483 4.88057 5.65483H5.71771C5.82194 5.65483 5.90797 5.73747 5.90797 5.84491V13.3687C5.90797 14.6778 5.19326 15.4298 3.95078 15.4298C3.56861 15.4298 3.2675 15.4298 2.42705 15.0166L0.693207 14.0183C0.264709 13.7704 0 13.3076 0 12.8134V5.19369C0 4.69783 0.264709 4.23503 0.693207 3.99041L7.30928 0.177269C7.72785 -0.0590896 8.28373 -0.0590896 8.699 0.177269L15.3068 3.99206C15.7336 4.23834 16 4.69948 16 5.19534V12.815C16 13.3092 15.7336 13.7704 15.3068 14.0183L8.699 17.8314C8.48723 17.9537 8.24734 18.0165 8.00248 18.0165" fill="#689F63"/>
<path d="M10.0447 12.77C7.15274 12.77 6.54639 11.4438 6.54639 10.3314C6.54639 10.2256 6.63175 10.1413 6.7378 10.1413H7.59149C7.68579 10.1413 7.76521 10.2099 7.7801 10.303C7.90914 11.172 8.29297 11.6104 10.0417 11.6104C11.4347 11.6104 12.027 11.296 12.027 10.558C12.027 10.1332 11.8583 9.81751 9.69427 9.60594C7.88433 9.42743 6.76593 9.0291 6.76593 7.58285C6.76593 6.25065 7.89094 5.45728 9.77534 5.45728C11.8914 5.45728 12.9403 6.19114 13.0726 7.76797C13.0776 7.82251 13.0577 7.8754 13.0213 7.91507C12.9849 7.95309 12.9336 7.97623 12.8807 7.97623H12.0221C11.9327 7.97623 11.855 7.91342 11.8368 7.82747C11.63 6.91344 11.1303 6.62088 9.77203 6.62088C8.25161 6.62088 8.07458 7.1498 8.07458 7.54649C8.07458 8.02747 8.28304 8.16796 10.3345 8.43903C12.3662 8.70844 13.3307 9.0886 13.3307 10.515C13.3307 11.953 12.1296 12.7778 10.0351 12.7778" fill="#689F63"/>
</svg>
