<svg width="16" height="9" viewBox="0 0 16 9" fill="none" xmlns="http://www.w3.org/2000/svg">
<mask id="mask0_113_901" style="mask-type:luminance" maskUnits="userSpaceOnUse" x="0" y="0" width="16" height="9">
<path d="M0.319824 4.50007C0.319824 6.73126 3.75835 8.54004 7.99982 8.54004C12.2413 8.54004 15.6799 6.73126 15.6799 4.50007C15.6799 2.2689 12.2413 0.460095 7.99982 0.460095C3.75835 0.460095 0.319824 2.2689 0.319824 4.50007Z" fill="white"/>
</mask>
<g mask="url(#mask0_113_901)">
<path d="M0.319824 4.50007C0.319824 6.73126 3.75835 8.54004 7.99982 8.54004C12.2413 8.54004 15.6799 6.73126 15.6799 4.50007C15.6799 2.2689 12.2413 0.460095 7.99982 0.460095C3.75835 0.460095 0.319824 2.2689 0.319824 4.50007Z" fill="url(#paint0_radial_113_901)"/>
</g>
<mask id="mask1_113_901" style="mask-type:luminance" maskUnits="userSpaceOnUse" x="0" y="0" width="16" height="9">
<path d="M0 0H16V9H0V0Z" fill="white"/>
</mask>
<g mask="url(#mask1_113_901)">
<path d="M8.00012 8.23999C12.0759 8.23999 15.3801 6.56552 15.3801 4.49996C15.3801 2.43443 12.0759 0.759934 8.00012 0.759934C3.92431 0.759934 0.620117 2.43443 0.620117 4.49996C0.620117 6.56552 3.92431 8.23999 8.00012 8.23999Z" fill="#777BB3"/>
</g>
<mask id="mask2_113_901" style="mask-type:luminance" maskUnits="userSpaceOnUse" x="0" y="0" width="16" height="9">
<path d="M0 0H16V9H0V0Z" fill="white"/>
</mask>
<g mask="url(#mask2_113_901)">
<path d="M4.49278 4.96351C4.82791 4.96351 5.07811 4.90171 5.23641 4.77988C5.39303 4.65929 5.50119 4.45038 5.55789 4.15896C5.61075 3.88657 5.59061 3.69638 5.49805 3.59374C5.40341 3.4889 5.1988 3.43574 4.88991 3.43574H4.35433L4.05741 4.96351H4.49278ZM2.74103 6.84546C2.71616 6.84546 2.69255 6.83435 2.67675 6.81513C2.66091 6.79593 2.6545 6.77065 2.65925 6.74624L3.44614 2.6976C3.45375 2.65846 3.48805 2.63018 3.52794 2.63018H5.22389C5.75689 2.63018 6.15361 2.7749 6.40297 3.06038C6.65366 3.34735 6.73108 3.74849 6.63305 4.25263C6.59316 4.45801 6.52455 4.64876 6.42914 4.81954C6.33361 4.99051 6.20736 5.14871 6.05383 5.28982C5.87005 5.46182 5.66205 5.58654 5.43616 5.65993C5.21386 5.73235 4.92836 5.76907 4.58761 5.76907H3.90089L3.70478 6.77801C3.69716 6.81718 3.66289 6.84546 3.623 6.84546H2.74103Z" fill="black"/>
<path d="M4.42287 3.51923H4.88976C5.26256 3.51923 5.39206 3.60104 5.43606 3.64979C5.50906 3.73073 5.52284 3.9014 5.47592 4.14332C5.4232 4.41415 5.32548 4.60618 5.18542 4.71401C5.04203 4.8244 4.80892 4.88034 4.49262 4.88034H4.15834L4.42287 3.51923ZM5.22373 2.54701H3.52776C3.44798 2.54701 3.3794 2.60357 3.36417 2.68187L2.57728 6.73051C2.56778 6.77937 2.58062 6.8299 2.61226 6.86832C2.64392 6.90673 2.69109 6.92896 2.74087 6.92896H3.62281C3.70262 6.92896 3.7712 6.8724 3.78642 6.79409L3.96942 5.85257H4.58745C4.93695 5.85257 5.23117 5.81445 5.46187 5.73932C5.69912 5.66223 5.9174 5.53154 6.11059 5.35087C6.27037 5.20387 6.40198 5.03887 6.5017 4.8604C6.60145 4.68187 6.67312 4.48279 6.7147 4.26868C6.8179 3.73801 6.73406 3.31307 6.46556 3.00573C6.19967 2.70134 5.78184 2.54701 5.22373 2.54701ZM3.95615 5.04701H4.49262C4.8482 5.04701 5.11306 4.98004 5.28709 4.84607C5.46115 4.71207 5.57853 4.48843 5.63953 4.17504C5.6979 3.87415 5.67131 3.66182 5.55978 3.53812C5.44812 3.41443 5.22481 3.35257 4.88976 3.35257H4.28548L3.95615 5.04701ZM5.22373 2.71368C5.73392 2.71368 6.10612 2.84757 6.34006 3.11537C6.57398 3.38318 6.64442 3.75698 6.55109 4.2369C6.51267 4.43459 6.4477 4.61534 6.35623 4.77909C6.26465 4.94295 6.14506 5.09279 5.99728 5.22865C5.82117 5.39346 5.62553 5.5109 5.41026 5.58084C5.19498 5.65098 4.92078 5.6859 4.58745 5.6859H3.83201L3.62281 6.76229H2.74087L3.52776 2.71368H5.22373Z" fill="white"/>
<path d="M8.65517 5.76904C8.63028 5.76904 8.6067 5.75793 8.59089 5.73871C8.57503 5.71952 8.56861 5.69427 8.57336 5.66982L8.92145 3.87846C8.95456 3.7081 8.94639 3.58582 8.89848 3.53415C8.86914 3.50257 8.78103 3.4496 8.5205 3.4496H7.88989L7.45225 5.7016C7.44464 5.74077 7.41034 5.76904 7.37045 5.76904H6.49545C6.47056 5.76904 6.44698 5.75793 6.43114 5.73871C6.41531 5.71952 6.40889 5.69424 6.41364 5.66982L7.20053 1.62118C7.20814 1.58204 7.24245 1.55377 7.28234 1.55377H8.15734C8.18223 1.55377 8.20581 1.56488 8.22164 1.58407C8.23748 1.60329 8.24389 1.62854 8.23914 1.65299L8.04925 2.63015H8.72764C9.24445 2.63015 9.59489 2.72127 9.799 2.90871C10.0071 3.09993 10.072 3.40568 9.99198 3.81757L9.62586 5.7016C9.61825 5.74077 9.58398 5.76904 9.54406 5.76904H8.65517Z" fill="black"/>
<path d="M8.15718 1.47035H7.28218C7.20237 1.47035 7.13379 1.52691 7.11857 1.60521L6.33168 5.65385C6.32218 5.70271 6.33501 5.75324 6.36668 5.79166C6.39835 5.83007 6.44551 5.85229 6.49529 5.85229H7.37029C7.45007 5.85229 7.51868 5.79574 7.5339 5.71743L7.95843 3.53285H8.52035C8.78043 3.53285 8.83501 3.58841 8.83721 3.59079C8.85298 3.60777 8.87373 3.68638 8.83948 3.86249L8.4914 5.65385C8.4819 5.70271 8.49473 5.75324 8.5264 5.79166C8.55807 5.83007 8.60523 5.85229 8.65501 5.85229H9.5439C9.62368 5.85229 9.69229 5.79574 9.70751 5.71743L10.0736 3.83341C10.1595 3.39116 10.086 3.05941 9.85523 2.84729C9.63501 2.64504 9.26612 2.54674 8.72748 2.54674H8.15015L8.32079 1.66882C8.33026 1.61996 8.31746 1.56941 8.28579 1.53102C8.25412 1.4926 8.20696 1.47035 8.15718 1.47035ZM8.15718 1.63702L7.94798 2.71341H8.72748C9.21796 2.71341 9.55626 2.79902 9.74246 2.97002C9.92865 3.14113 9.98443 3.41838 9.91001 3.80163L9.5439 5.68563H8.65501L9.0031 3.89429C9.04271 3.69052 9.02815 3.55152 8.95937 3.47741C8.89057 3.40329 8.74421 3.36618 8.52035 3.36618H7.82101L7.37029 5.68563H6.49529L7.28218 1.63702H8.15718Z" fill="white"/>
<path d="M11.3766 4.96351C11.7117 4.96351 11.9619 4.90171 12.1202 4.77988C12.2768 4.65932 12.385 4.4504 12.4417 4.15896C12.4946 3.88657 12.4744 3.69638 12.3818 3.59374C12.2872 3.4889 12.0826 3.43574 11.7737 3.43574H11.2381L10.9412 4.96351H11.3766ZM9.62484 6.84546C9.59998 6.84546 9.57637 6.83435 9.56056 6.81513C9.54473 6.79593 9.53828 6.77065 9.54303 6.74624L10.3299 2.6976C10.3376 2.65846 10.3718 2.63018 10.4118 2.63018H12.1077C12.6407 2.63018 13.0374 2.7749 13.2868 3.06038C13.5375 3.34732 13.6149 3.74846 13.5169 4.25263C13.4769 4.45801 13.4083 4.64876 13.3129 4.81954C13.2174 4.99051 13.0911 5.14871 12.9376 5.28982C12.7538 5.46182 12.5458 5.58654 12.3199 5.65993C12.0976 5.73235 11.8121 5.76907 11.4714 5.76907H10.7846L10.5886 6.77801C10.581 6.81718 10.5467 6.84546 10.5068 6.84546H9.62484Z" fill="black"/>
<path d="M11.3066 3.51899H11.7735C12.1463 3.51899 12.2758 3.60079 12.3198 3.64954C12.3929 3.73049 12.4066 3.90116 12.3597 4.14304C12.307 4.41391 12.2092 4.60593 12.0692 4.71377C11.9258 4.82416 11.6927 4.8801 11.3764 4.8801H11.0421L11.3066 3.51899ZM12.1075 2.54677H10.4115C10.3318 2.54677 10.2632 2.60332 10.248 2.68163L9.46107 6.73027C9.45157 6.77913 9.46441 6.82966 9.49605 6.86807C9.52771 6.90649 9.57488 6.92871 9.62466 6.92871H10.5066C10.5864 6.92871 10.655 6.87216 10.6702 6.79385L10.8532 5.85232H11.4712C11.8207 5.85232 12.1149 5.81421 12.3456 5.73907C12.5829 5.66199 12.8012 5.53127 12.9944 5.35057C13.1542 5.2036 13.2857 5.03863 13.3855 4.86016C13.4852 4.68163 13.5569 4.48254 13.5985 4.26843C13.7017 3.73774 13.6178 3.31279 13.3493 3.00546C13.0834 2.7011 12.6656 2.54677 12.1075 2.54677ZM10.8399 5.04677H11.3764C11.732 5.04677 11.9968 4.97979 12.1709 4.84582C12.3449 4.71182 12.4623 4.48818 12.5233 4.17479C12.5817 3.87391 12.5551 3.66157 12.4435 3.53788C12.3319 3.41418 12.1086 3.35232 11.7735 3.35232H11.1692L10.8399 5.04677ZM12.1075 2.71343C12.6177 2.71343 12.9899 2.84732 13.2238 3.11513C13.4578 3.38293 13.5282 3.75674 13.4349 4.23666C13.3964 4.43435 13.3315 4.6151 13.24 4.77885C13.1484 4.94271 13.0288 5.09254 12.881 5.22841C12.7049 5.39321 12.5093 5.51066 12.294 5.5806C12.0787 5.65074 11.8045 5.68566 11.4712 5.68566H10.7158L10.5066 6.76204H9.62466L10.4115 2.71343H12.1075Z" fill="white"/>
</g>
<defs>
<radialGradient id="paint0_radial_113_901" cx="0" cy="0" r="1" gradientUnits="userSpaceOnUse" gradientTransform="translate(4.93094 1.88042) scale(10.0849)">
<stop stop-color="#AEB2D5"/>
<stop offset="0.3" stop-color="#AEB2D5"/>
<stop offset="0.75" stop-color="#484C89"/>
<stop offset="1" stop-color="#484C89"/>
</radialGradient>
</defs>
</svg>
