<svg width="18" height="17" viewBox="0 0 18 17" fill="none" xmlns="http://www.w3.org/2000/svg">
<path d="M9.00019 9.94614C9.82359 9.94614 10.4911 9.27865 10.4911 8.45525C10.4911 7.63185 9.82359 6.96436 9.00019 6.96436C8.17678 6.96436 7.50928 7.63185 7.50928 8.45525C7.50928 9.27865 8.17678 9.94614 9.00019 9.94614Z" fill="#61DAFB"/>
<path d="M9 11.5099C13.4183 11.5099 17 10.1424 17 8.45539C17 6.76843 13.4183 5.40088 9 5.40088C4.58172 5.40088 1 6.76843 1 8.45539C1 10.1424 4.58172 11.5099 9 11.5099Z" stroke="#61DAFB"/>
<path d="M6.35488 9.98265C8.56402 13.809 11.5392 16.227 13.0002 15.3835C14.4612 14.54 13.8546 10.7544 11.6455 6.92814C9.43637 3.10183 6.46116 0.683776 5.00019 1.52726C3.53923 2.37074 4.14574 6.15635 6.35488 9.98265Z" stroke="#61DAFB"/>
<path d="M6.35488 6.92831C4.14574 10.7546 3.53923 14.5402 5.00019 15.3837C6.46116 16.2272 9.43637 13.8091 11.6455 9.98282C13.8546 6.15652 14.4612 2.37091 13.0002 1.52743C11.5392 0.683949 8.56402 3.102 6.35488 6.92831Z" stroke="#61DAFB"/>
</svg>
