<svg width="50" height="50" viewBox="0 0 50 50" fill="none" xmlns="http://www.w3.org/2000/svg">
<rect width="50" height="50" rx="6" fill="#B6BB79"/>
<path d="M9.75764 24.8658C9.83089 25.0797 9.74719 25.4673 9.6986 25.6868C9.69777 25.6908 9.69693 25.6947 9.69609 25.6987C9.68456 25.7511 9.67729 25.7995 9.66839 25.8587C9.64676 25.9977 9.62067 26.1881 9.49488 26.5848C9.48025 26.6874 9.46385 26.7897 9.44573 26.8913C9.44331 26.9049 9.4409 26.9184 9.43848 26.932C9.27552 27.8453 9.1444 28.7824 9.03406 29.757C9.01196 29.946 8.99187 30.1381 8.97335 30.3313C8.97366 30.3459 8.974 30.3608 8.97435 30.3759C8.98079 30.6675 8.99566 31.0299 8.96462 31.2587C8.92491 31.5498 8.88988 31.7481 8.86002 31.9115C8.83221 32.476 8.82852 33.2083 8.87346 33.5471C8.91792 33.7492 9.03059 33.9396 9.23432 34.1684C9.27772 34.2175 9.32399 34.2673 9.37262 34.318C9.49237 34.4448 9.61361 34.5377 9.71897 34.5841C9.85316 34.6448 9.94591 34.6378 10.3382 34.6633C10.3807 34.6642 10.4261 34.6665 10.4738 34.6712C10.5907 34.6744 10.708 34.6729 10.8185 34.6702C11.0096 34.6656 11.1827 34.6584 11.3242 34.6659C11.665 34.6841 12.0507 34.758 12.3387 34.8101C12.3856 34.8186 12.4302 34.8266 12.4713 34.8336C12.703 34.84 12.9351 34.8436 13.166 34.8447C13.1809 34.8537 13.1952 34.8631 13.2108 34.8727C13.2324 34.8863 13.2544 34.8985 13.2768 34.9094C13.4989 34.9995 13.7129 35.0256 14.0466 35.0503C14.209 35.0622 14.3958 35.0738 14.6149 35.0898C14.6779 35.0944 14.7266 35.1054 14.7673 35.1195C14.8219 35.1372 14.8619 35.1601 14.8969 35.1805C14.9155 35.1914 14.933 35.2015 14.9506 35.2098C15.011 35.2384 15.0767 35.2124 15.1546 35.182C15.2554 35.1427 15.3773 35.0961 15.5306 35.1525C16.0173 35.3331 16.2377 35.2485 16.4073 35.1828C16.4568 35.1636 16.5017 35.1463 16.5469 35.1383C16.6935 35.1121 16.8945 35.1642 17.044 35.2258C17.1626 35.2747 17.4085 35.2528 17.5932 35.2139C17.6145 35.2095 17.6379 35.2069 17.663 35.2055L17.6349 35.2044C17.6912 35.199 17.7612 35.2001 17.8372 35.201C17.9514 35.2025 18.084 35.2038 18.2265 35.1838C18.5869 35.1333 18.7781 35.1074 18.9321 35.087C18.9759 35.0811 19.017 35.0758 19.0577 35.0702C19.1867 35.0525 19.3468 35.0377 19.5089 35.0225C19.7028 35.0042 19.8991 34.9852 20.0485 34.9599C20.3214 34.976 20.5958 34.9941 20.8636 35.0105C20.9757 35.0172 21.0875 35.0236 21.1952 35.0289C21.3857 35.0383 21.558 35.1201 21.6711 35.2568C21.7753 35.3955 21.9323 35.5618 21.9657 35.7662C21.9984 35.9679 21.9939 36.1784 21.8324 36.3587C21.6749 36.5355 21.4657 36.639 21.2559 36.6634C21.1365 36.6771 21.0173 36.6895 20.8994 36.7012C20.605 36.7303 20.3117 36.7553 20.0201 36.776C19.5233 36.8109 19.0275 36.8329 18.5298 36.8298C18.221 36.8277 17.9124 36.8208 17.599 36.8069L17.5648 36.8055C17.525 36.8022 17.4845 36.7987 17.4448 36.7951C17.4086 36.7918 17.3725 36.7884 17.3364 36.785C17.0379 36.8156 16.7447 36.8392 16.5406 36.8403C16.3721 36.8412 16.2529 36.8052 16.151 36.7746C16.0808 36.7535 16.0189 36.7349 15.9551 36.7327C15.9209 36.7315 15.8741 36.7314 15.8178 36.7313C15.5875 36.7311 15.2009 36.7328 14.859 36.6724C14.8173 36.665 14.7736 36.6561 14.7292 36.6462C14.5958 36.6198 14.4547 36.5832 14.3199 36.5458C14.0531 36.4724 13.8119 36.3957 13.6873 36.4012C13.5178 36.4094 13.3211 36.3771 13.185 36.3513C13.1372 36.3438 13.0891 36.3357 13.0431 36.3278C12.8375 36.2926 12.6585 36.2601 12.5532 36.286C12.4271 36.317 12.3239 36.2917 12.1706 36.2532C12.0644 36.2265 11.9341 36.1936 11.7551 36.1672C11.5484 36.1367 11.4044 36.0919 11.2821 36.0532C11.1095 35.9986 10.9817 35.957 10.7756 35.9766C10.5925 35.994 10.3999 35.9946 10.2329 35.965C10.2181 35.9626 10.1994 35.9586 10.1773 35.9531C10.1269 35.9399 10.0414 35.9386 9.92715 35.9326C9.77743 35.9255 9.5754 35.8998 9.40758 35.8256C9.26864 35.7652 9.17469 35.6764 9.10338 35.5976C9.08025 35.5725 9.06106 35.5493 9.04095 35.5264C8.94952 35.472 8.86531 35.4128 8.78667 35.3512C8.77006 35.3462 8.75167 35.3403 8.73387 35.3351C8.6567 35.311 8.5661 35.2795 8.474 35.2223C8.45825 35.2133 8.44259 35.2036 8.42672 35.1928C8.27118 35.087 8.16655 34.9443 8.06303 34.7775C7.98263 34.647 7.90242 34.5024 7.80383 34.3331C7.73994 34.2235 7.66706 34.0951 7.60731 33.9609C7.60339 33.9515 7.59962 33.9422 7.596 33.933C7.49929 33.6731 7.46554 33.5171 7.46207 33.3832C7.46199 33.335 7.4825 33.2921 7.50321 33.2504C7.50334 33.2502 7.50347 33.2501 7.50361 33.2499C7.50501 33.247 7.50637 33.2441 7.50777 33.2413C7.45782 32.9444 7.41757 32.6533 7.3801 32.3643C7.37235 32.3395 7.3647 32.3141 7.35719 32.289C7.32058 32.1679 7.28593 32.0489 7.2408 31.9723C7.1918 31.8895 7.15773 31.6772 7.12482 31.4532C7.10317 31.3065 7.0819 31.1547 7.05531 31.0305C7.03976 30.9579 7.06515 30.8887 7.09155 30.8176C7.11619 30.7515 7.14166 30.6832 7.13554 30.6092C7.13248 30.572 7.12194 30.5315 7.11077 30.4885C7.10094 30.4508 7.09058 30.4105 7.08448 30.3684C7.07883 30.3295 7.09388 30.2422 7.1139 30.1315C7.1263 30.062 7.14054 29.985 7.15318 29.902C7.14986 29.8305 7.14703 29.7565 7.14459 29.6849C7.13958 29.5418 7.13565 29.3967 7.13316 29.2521C7.11274 29.2061 7.08538 29.1652 7.0493 29.1323C7.02342 29.1085 6.99211 29.0875 6.96011 29.0663C6.91656 29.0374 6.87163 29.0066 6.83676 28.9666C6.80951 28.9352 6.80012 28.8987 6.81358 28.876C6.81987 28.8653 6.83096 28.8575 6.841 28.8504C6.8525 28.8423 6.86273 28.835 6.86306 28.8254C6.86328 28.8184 6.85599 28.8106 6.84717 28.8012C6.83309 28.7861 6.81492 28.7665 6.8161 28.7383C6.82047 28.6337 6.83525 28.515 6.85071 28.3986C6.86787 28.2692 6.88581 28.1425 6.88976 28.0406C6.89414 27.9263 6.93948 27.7668 6.98707 27.6077C7.0202 27.4969 7.05434 27.3858 7.07547 27.2897C7.09615 27.1956 7.09442 27.094 7.09348 26.9954C7.09233 26.8769 7.09249 26.7624 7.13347 26.6718C7.14177 26.6536 7.17665 26.635 7.22037 26.6119C7.25134 26.5956 7.28679 26.577 7.32046 26.5547C7.32323 26.5391 7.32606 26.5235 7.32893 26.5078C7.34584 26.4162 7.3627 26.3253 7.37951 26.2343C7.37592 26.2299 7.37227 26.2254 7.36853 26.2209C7.36844 26.2208 7.36835 26.2208 7.36826 26.2207C7.28392 26.1182 7.16726 25.9826 7.27058 25.8266C7.29689 25.7865 7.33826 25.7646 7.37552 25.7446C7.41212 25.7248 7.44487 25.707 7.45522 25.6763C7.46704 25.6407 7.45186 25.596 7.43541 25.5459C7.41221 25.4765 7.38607 25.399 7.42766 25.3276C7.43048 25.3228 7.43357 25.3177 7.43669 25.3124C7.4663 25.2613 7.51008 25.1849 7.58853 25.1122C7.63459 24.8753 7.68317 24.6377 7.73419 24.3981C7.81897 24.0005 7.91005 23.6013 8.00194 23.2043C8.04693 23.0108 8.16318 22.835 8.33054 22.7127C8.4976 22.5947 8.7012 22.5371 8.9017 22.5613C9.10225 22.5852 9.28629 22.6892 9.42103 22.8425C9.55507 23.0002 9.62721 23.1969 9.62648 23.3943C9.62475 23.7172 9.62414 24.0363 9.62064 24.3599C9.62291 24.377 9.62506 24.3941 9.62698 24.4109C9.64091 24.5392 9.68446 24.66 9.72797 24.7818C9.73793 24.8101 9.74795 24.8381 9.75764 24.8658Z" fill="white"/>
<path d="M8.32583 17.5013C8.33687 17.1906 8.52885 16.7509 8.74573 16.3477C8.75053 16.3389 8.75468 16.3315 8.76057 16.3209C8.79944 16.2597 8.7886 16.2433 8.95258 16.0357C8.99383 15.9899 9.03561 15.9437 9.0841 15.8929C9.26117 15.7177 9.52656 15.4207 10.1998 15.1404C10.3844 15.0448 10.5722 14.9674 10.7557 14.9052C11.4894 14.6624 12.1557 14.6123 12.7903 14.5892C13.9162 14.5677 14.9109 14.68 15.932 14.7854C15.9524 14.7859 15.9731 14.7863 15.9939 14.7868C16.3977 14.7964 16.8959 14.8107 17.204 14.8619C17.4596 14.9043 17.6592 14.9419 17.8261 14.975C17.9218 14.993 18.0064 15.0104 18.085 15.0272C18.8556 15.1056 19.687 15.2644 20.39 15.3989C20.9312 15.4879 21.4691 15.6361 21.9331 15.7426C22.0472 15.768 22.1569 15.7898 22.2632 15.8061C22.6452 15.8532 23.0572 16.055 23.3246 16.2895C23.5667 16.4943 23.7299 16.6882 23.8795 16.8292C24.085 17.0355 24.1641 17.2302 24.2284 17.3969C24.3469 17.6758 24.4044 17.9029 24.4569 18.1108C24.5273 18.4008 24.5722 18.645 24.5951 18.8444C24.6111 18.986 24.621 19.1308 24.6276 19.2741C24.6415 19.5754 24.6601 19.9211 24.672 20.1989C24.6749 20.2638 24.6776 20.3249 24.6804 20.3816C24.7286 20.6945 24.776 21.0131 24.8165 21.3357C24.8103 21.3581 24.8036 21.3803 24.7968 21.4031C24.7462 21.5714 24.7337 21.7579 24.735 21.9945C24.7352 22.1449 24.7464 22.3174 24.7629 22.5227C24.7804 22.7412 24.8042 22.998 24.8242 23.3045C24.837 23.5022 24.8037 23.6082 24.7765 23.6943C24.7685 23.7201 24.761 23.7433 24.7553 23.7674C24.7363 23.8478 24.7704 23.928 24.8115 24.0224L24.8135 24.0646C24.8141 24.0664 24.8147 24.0682 24.8153 24.07C24.8605 24.1975 24.9149 24.3495 24.8706 24.5528C24.7299 25.2003 24.8402 25.4844 24.9225 25.6982C24.9467 25.7608 24.9686 25.8175 24.9814 25.8765C25.0229 26.0655 24.9927 26.3396 24.9471 26.5455C24.9202 26.6675 24.9395 26.8786 24.9741 27.0808C24.9851 27.1585 24.9979 27.2291 25.0112 27.2919C25.0309 27.3863 25.0322 27.5125 25.0334 27.6621C25.0347 27.8172 25.0359 27.996 25.0579 28.1867C25.1135 28.6693 25.1401 28.9259 25.1615 29.1323C25.1676 29.1906 25.1731 29.2455 25.1789 29.3007C25.1971 29.4727 25.2121 29.6875 25.2273 29.9049C25.2454 30.165 25.2637 30.4282 25.288 30.6287C25.2627 31.1486 25.2312 31.6688 25.1996 32.1883C25.1833 32.4552 25.0909 32.7116 24.9387 32.9001C24.7864 33.0889 24.5878 33.1949 24.3819 33.1949C24.1761 33.1949 23.9775 33.0888 23.8251 32.9001C23.6729 32.7116 23.5804 32.4552 23.564 32.1884C23.5313 31.6509 23.4985 31.1133 23.4721 30.5756C23.44 29.9212 23.4174 29.2668 23.4158 28.6122C23.4145 28.1549 23.4179 27.6969 23.4234 27.2417C23.424 27.1959 23.4246 27.1481 23.4252 27.1035L23.4254 27.116C23.4254 27.1153 23.4254 27.1147 23.4254 27.114C23.366 26.7299 23.3108 26.3485 23.288 26.0776C23.2691 25.8547 23.2924 25.6902 23.3124 25.55C23.3261 25.4531 23.3384 25.3675 23.3343 25.2813C23.3321 25.2347 23.3277 25.1715 23.3224 25.0951C23.3054 24.8499 23.28 24.4691 23.2924 24.0812L23.2957 24.1504C23.2915 24.0468 23.2896 23.9424 23.2912 23.8395C23.2945 23.6266 23.315 23.3768 23.335 23.135C23.3632 22.7894 23.3936 22.4598 23.3672 22.2953C23.3548 22.2197 23.3464 22.1406 23.3414 22.0595C23.328 21.8507 23.3312 21.6298 23.3309 21.4262C23.3306 21.1635 23.3251 20.9315 23.2771 20.8033C23.2196 20.6506 23.2211 20.5145 23.2228 20.3091C23.2241 20.1661 23.2246 19.9912 23.209 19.746C23.1999 19.6008 23.1995 19.4723 23.2047 19.357C23.2101 19.2573 23.218 19.1709 23.2251 19.0918C23.2454 18.8635 23.2607 18.6911 23.1892 18.4551C23.1105 18.1948 23.0304 17.9426 22.9983 17.8169C22.9873 17.7608 22.9529 17.7209 22.9748 17.7498C22.9719 17.7469 22.9689 17.7441 22.966 17.7413C22.8266 17.607 22.7051 17.477 22.6215 17.3698C22.5526 17.2809 22.5203 17.2022 22.4869 17.135C22.4766 17.1141 22.4663 17.0946 22.4555 17.0769C22.396 17.0403 22.3376 17.0135 22.2745 16.9938C22.2625 16.9966 22.2496 17 22.2365 17.0039C22.1943 17.0163 22.1481 17.0335 22.0961 17.0489C22.0433 17.0546 21.9871 17.0576 21.9279 17.0561C21.6699 17.0494 21.469 16.9809 21.2677 16.9133C21.1107 16.8604 20.9524 16.8066 20.7667 16.7788C20.6401 16.7598 20.4955 16.7519 20.3524 16.7477C20.3072 16.7465 20.2621 16.7455 20.2174 16.7445C20.0356 16.7387 19.8681 16.7265 19.7496 16.6975C19.693 16.6837 19.6477 16.6518 19.6032 16.6202C19.603 16.62 19.6028 16.6199 19.6026 16.6197C19.5996 16.6175 19.5965 16.6154 19.5935 16.6133C19.2245 16.5794 18.8693 16.5606 18.5037 16.5555C18.4721 16.5595 18.4401 16.5636 18.4075 16.5675C18.2518 16.5871 18.0994 16.6082 17.999 16.6452C17.9477 16.6643 17.8608 16.6773 17.7514 16.6878C17.6265 16.6993 17.4752 16.7065 17.3204 16.7135C17.1278 16.7222 16.9297 16.7308 16.7674 16.7477C16.6738 16.7577 16.5854 16.7272 16.4956 16.6958C16.4114 16.6666 16.3251 16.6366 16.2296 16.638C16.1818 16.6388 16.129 16.6468 16.0738 16.6556C16.025 16.6632 15.9726 16.6713 15.919 16.6753C15.869 16.6789 15.7588 16.6594 15.6175 16.635C15.5304 16.6199 15.4311 16.6029 15.3272 16.5881C15.0505 16.5924 14.7743 16.5974 14.5003 16.6039C14.4429 16.6249 14.3922 16.653 14.3523 16.6898C14.3237 16.7162 14.2992 16.748 14.2742 16.7806C14.2397 16.8248 14.2042 16.8706 14.1566 16.9068C14.1197 16.9351 14.0758 16.9459 14.047 16.9334C14.0336 16.9275 14.0234 16.9168 14.0142 16.907C14.0036 16.8959 13.9942 16.886 13.9825 16.8861C13.9741 16.8862 13.9654 16.8939 13.9543 16.9031C13.9367 16.9179 13.9138 16.937 13.8798 16.9373C13.7534 16.9385 13.6101 16.9317 13.4725 16.9268C13.3192 16.9213 13.1739 16.9183 13.0612 16.9289C13.0228 16.9326 12.9755 16.9334 12.9302 16.9322C12.8194 16.9303 12.6939 16.9196 12.5686 16.9116C12.4406 16.9034 12.3149 16.898 12.211 16.9044C12.1085 16.9107 12.0082 16.9436 11.9169 16.9776C11.8067 17.0184 11.7101 17.0608 11.6213 17.0601C11.6032 17.0599 11.5738 17.036 11.5367 17.0066C11.5103 16.9857 11.4792 16.9624 11.4461 16.9428C11.3425 16.9779 11.2463 17.0164 11.1586 17.0583C11.1575 17.0637 11.1563 17.0691 11.1552 17.0746C11.1552 17.0748 11.1552 17.0749 11.1552 17.075C11.1273 17.2022 11.1274 17.3575 10.9804 17.3717C10.942 17.3763 10.901 17.3618 10.863 17.3498C10.8257 17.3381 10.7914 17.3287 10.7671 17.3436C10.7396 17.3605 10.7279 17.4022 10.717 17.448C10.7119 17.4692 10.707 17.4912 10.7002 17.5126C10.8555 17.3206 10.7983 17.3921 10.81 17.3852C10.8063 17.3964 10.7949 17.4129 10.7741 17.433C10.7701 17.4364 10.7657 17.4403 10.7612 17.4446C10.7165 17.4887 10.6487 17.5628 10.5466 17.6327C10.4196 17.9071 10.2915 18.1985 10.1656 18.4875C9.9554 18.9714 9.74735 19.4598 9.55462 19.9474C9.46069 20.1846 9.3059 20.3883 9.11616 20.5225C8.92634 20.6552 8.71661 20.7132 8.51844 20.6734C8.32006 20.6365 8.14992 20.486 8.05066 20.2565C7.95138 20.027 7.93077 19.7468 7.98706 19.4805C8.07921 19.0465 8.17942 18.6205 8.28841 18.1956C8.29179 18.1725 8.29533 18.1495 8.29908 18.1267C8.32741 17.9559 8.3258 17.7875 8.32527 17.6187C8.3253 17.5795 8.32546 17.54 8.32583 17.5013Z" fill="white"/>
<path d="M25.3165 15.7015C25.4152 15.5558 25.6685 15.4821 25.7959 15.4369C25.7983 15.436 25.8006 15.4351 25.803 15.4343C25.8334 15.4238 25.8605 15.4104 25.8918 15.3943C25.9451 15.3666 26.0073 15.3343 26.1322 15.2816C26.2334 15.2275 26.3538 15.1738 26.4907 15.1291C26.6188 15.0661 26.7441 15.0163 26.8646 14.9759C27.474 14.7796 27.9748 14.7489 28.4684 14.7274C28.7401 14.7312 29.4321 14.6059 29.972 14.5993C29.9852 14.5971 29.9993 14.5949 30.0125 14.5927C30.1694 14.5676 30.3497 14.5426 30.5128 14.5327C30.5554 14.5315 30.6036 14.5299 30.6517 14.5337C30.806 14.5451 30.9713 14.5311 31.1079 14.5235C31.3233 14.4741 31.575 14.4132 31.8396 14.3753C32.6312 14.304 33.0463 14.3808 33.6277 14.3665C33.6392 14.3664 33.6509 14.3664 33.6625 14.3663C33.8988 14.3653 34.1358 14.3644 34.3678 14.3606C34.593 14.357 34.8177 14.3518 35.0418 14.3448C35.1727 14.323 35.2962 14.2976 35.4113 14.2742C35.5727 14.2414 35.7167 14.2126 35.8354 14.2035C36.1215 14.1813 36.4454 14.219 36.6857 14.2475C36.725 14.2522 36.762 14.2566 36.7961 14.2604C36.9873 14.2487 37.1784 14.2364 37.3693 14.2239C37.3819 14.2321 37.3947 14.2406 37.4076 14.2494C37.5693 14.3584 37.7695 14.3592 38.0836 14.3613C38.2202 14.3621 38.38 14.3633 38.5661 14.3736C38.5733 14.374 38.5802 14.3745 38.5869 14.3752C38.7017 14.3857 38.7603 14.4272 38.81 14.4615C38.8254 14.4723 38.8396 14.4824 38.8539 14.4907C38.9051 14.5192 38.9588 14.4931 39.0263 14.4634C39.1125 14.4248 39.2194 14.3794 39.3515 14.4409C39.7692 14.639 39.9786 14.5945 40.1658 14.5688C40.2189 14.5614 40.2702 14.557 40.3192 14.5628C40.4782 14.5789 40.6901 14.7223 40.806 14.865C40.865 14.9344 40.9854 15.0205 41.0724 15.0639L41.2016 15.2035C41.2521 15.2555 41.3053 15.3074 41.3548 15.3542C41.4075 15.404 41.456 15.4861 41.5082 15.5871C41.5623 15.6921 41.6202 15.8161 41.6935 15.957C41.708 15.985 41.7217 16.0126 41.7345 16.0398L41.7471 16.0833C41.8646 16.4305 41.8946 16.4952 41.9381 16.6216C41.9502 16.6557 41.9615 16.6881 41.9728 16.719C42.009 16.8194 42.0463 16.9442 42.0842 17.0701C42.1296 17.2211 42.176 17.3739 42.2217 17.4878C42.2534 17.7985 42.2805 18.1108 42.3115 18.4123C42.3273 18.5669 42.2691 18.7279 42.146 18.8585C42.0229 18.9902 41.8456 19.078 41.6567 19.1601C41.47 19.2496 41.2474 19.2256 41.0687 19.1405C40.8888 19.0545 40.7617 18.9103 40.711 18.7493C40.6097 18.4252 40.516 18.106 40.4302 17.786C40.3259 17.3966 40.2345 17.0042 40.1649 16.6167C40.1573 16.5717 40.1328 16.4484 40.1442 16.4947L40.1587 16.5452C40.1254 16.4347 40.0615 16.2915 39.9855 16.1579C39.9753 16.14 39.965 16.1221 39.9544 16.1044C39.9451 16.0967 39.9357 16.0891 39.9264 16.0816L40.0984 16.2675C39.8858 16.1525 39.8602 16.1963 39.7793 16.1742C39.7185 16.1632 39.6705 16.1204 39.6229 16.0839C39.5902 16.0589 39.5574 16.037 39.5201 16.0316C39.4998 16.0286 39.4715 16.0263 39.4361 16.0239C39.2933 16.0133 39.0261 16.011 38.7651 15.9532C38.7033 15.9393 38.6377 15.92 38.5661 15.8989C38.5005 15.8802 38.43 15.8594 38.3634 15.8391C38.1583 15.7773 37.9684 15.7198 37.871 15.7355C37.7007 15.7632 37.5066 15.7358 37.3352 15.7117C37.1716 15.6888 37.0285 15.6689 36.9464 15.7025C36.849 15.7426 36.766 15.7252 36.6426 15.6996C36.5573 15.6818 36.4523 15.6601 36.3096 15.6509C36.145 15.6403 36.0285 15.6112 35.9295 15.5865C35.7902 15.5517 35.6855 15.5257 35.529 15.5733C35.3555 15.6261 35.175 15.6603 35.0322 15.6445C34.9679 15.6372 34.8926 15.6396 34.8163 15.6422C34.7138 15.6456 34.6064 15.6495 34.5091 15.6318C34.4272 15.6174 34.3621 15.5785 34.3013 15.5442C34.2827 15.5335 34.2649 15.5233 34.2478 15.5144C34.1843 15.5161 34.1195 15.5183 34.0559 15.521C34.0456 15.5277 34.0348 15.5351 34.0236 15.5428C33.9683 15.5811 33.8987 15.6283 33.8149 15.6537C33.7795 15.6642 33.7461 15.6707 33.7142 15.6744C33.6145 15.6854 33.5243 15.6721 33.427 15.6584C33.3265 15.644 33.2213 15.6289 33.1022 15.6407C33.0205 15.6488 32.9294 15.669 32.839 15.6892C32.7039 15.7193 32.5745 15.7493 32.4842 15.7397C32.4512 15.736 32.4209 15.7128 32.3923 15.6898C32.3922 15.6896 32.392 15.6895 32.3919 15.6893C32.39 15.6878 32.3881 15.6863 32.386 15.6847C32.2791 15.7019 32.2067 15.719 32.144 15.7442C32.0525 15.7754 31.9609 15.8117 31.8655 15.8527C31.8505 15.864 31.8352 15.8755 31.82 15.8869C31.7455 15.9425 31.6694 15.9997 31.6242 16.0594C31.5755 16.1232 31.4232 16.2068 31.2126 16.2935C31.0758 16.3498 30.9125 16.4031 30.7673 16.4453C30.7346 16.4549 30.7014 16.4579 30.6678 16.4565C30.6353 16.4526 30.6031 16.4392 30.5706 16.4256C30.5197 16.4052 30.4687 16.3844 30.4155 16.3962C30.3897 16.402 30.3608 16.4159 30.3317 16.4307C30.3065 16.4436 30.278 16.4577 30.2495 16.4677C30.2228 16.477 30.159 16.4706 30.0783 16.4637C30.0275 16.4595 29.9709 16.4551 29.9111 16.4541C29.7604 16.4939 29.6111 16.537 29.4561 16.5829C29.4271 16.6119 29.4044 16.6465 29.3887 16.6883C29.3776 16.7183 29.3698 16.7529 29.3617 16.7884C29.3508 16.8367 29.3391 16.8867 29.3171 16.9291C29.2998 16.9623 29.274 16.9794 29.2524 16.9715C29.2422 16.9678 29.2332 16.9588 29.225 16.9507C29.2156 16.9414 29.2072 16.9331 29.1993 16.935C29.1936 16.9364 29.189 16.9452 29.1833 16.9559C29.1741 16.973 29.1627 16.9951 29.1377 17.0006C29.0465 17.0207 28.9298 17.0358 28.7964 17.0464C28.7599 17.0493 28.7221 17.0517 28.6841 17.0538C28.6163 17.0556 28.554 17.0592 28.5023 17.0692C28.4258 17.084 28.3138 17.0683 28.2048 17.055C28.1286 17.0456 28.0539 17.0376 27.9931 17.0403C27.9336 17.0429 27.8774 17.0704 27.8276 17.0976C27.7674 17.1303 27.7166 17.1623 27.6655 17.151C27.655 17.1487 27.6353 17.122 27.6098 17.089C27.5916 17.0656 27.571 17.039 27.5487 17.0156C27.4933 17.0342 27.4447 17.0523 27.4038 17.0692C27.4042 17.0737 27.4046 17.0782 27.4051 17.0829C27.4051 17.083 27.4052 17.0831 27.4052 17.0832C27.4128 17.1603 27.4357 17.2529 27.4247 17.2752C27.3951 17.3001 27.3559 17.3179 27.3045 17.3242C27.2562 17.3301 27.2122 17.3122 27.1731 17.2958C27.1343 17.2799 27.1005 17.265 27.0695 17.276C27.0346 17.2881 27.0077 17.3276 26.9775 17.3703C26.9357 17.4301 26.8856 17.4973 26.8057 17.5017C26.8001 17.5021 26.7942 17.5024 26.788 17.5028C26.7306 17.5061 26.6445 17.5106 26.5471 17.4801C26.3383 17.5597 26.132 17.6242 25.93 17.6803C25.5913 17.7742 25.2606 17.8462 24.9292 17.9142C24.7683 17.9468 24.5919 17.9066 24.4349 17.7994C24.2801 17.6911 24.157 17.5261 24.0934 17.3345C24.0298 17.1428 24.0296 16.9373 24.0849 16.7585C24.1426 16.579 24.2519 16.4417 24.3904 16.3699C24.6174 16.2527 24.8395 16.1342 25.0543 16.0156C25.0648 16.007 25.0752 15.9986 25.0855 15.9905C25.1636 15.9296 25.2215 15.845 25.2781 15.7598C25.2906 15.7404 25.3036 15.7208 25.3165 15.7015Z" fill="white"/>
<path d="M28.633 29.1714C28.6182 29.0245 28.7761 28.8732 28.8652 28.7899C28.8668 28.7884 28.8684 28.7869 28.8699 28.7854C28.8909 28.7657 28.9086 28.7442 28.9287 28.7199C28.976 28.663 29.0418 28.582 29.226 28.4494C29.2631 28.3993 29.3041 28.3469 29.3455 28.2971C29.4733 28.1438 29.6117 27.9938 29.7918 27.8342C29.885 27.7528 29.9836 27.6704 30.135 27.5719C30.2131 27.5224 30.3012 27.4685 30.443 27.4096C30.588 27.3589 30.7968 27.2554 31.2156 27.3266C31.6178 27.4127 31.8584 27.6521 31.9772 27.7998C32.1019 27.9575 32.1581 28.0784 32.2046 28.1834C32.2922 28.3916 32.3275 28.5454 32.3617 28.6884C32.3652 28.6959 32.3687 28.7035 32.3722 28.7111C32.4404 28.8597 32.5131 29.0115 32.5189 29.1103C32.5263 29.2376 32.5213 29.3152 32.5164 29.3778C32.5302 29.4267 32.5435 29.4682 32.5539 29.5002C32.5604 29.5347 32.5571 29.5352 32.4847 29.515C32.4149 29.4902 32.2602 29.5049 32.2229 29.5393C32.1506 29.6073 32.3008 29.5324 32.3912 29.4164C32.4677 29.3283 32.5432 29.2177 32.6133 29.0972C32.6781 28.9858 32.7395 28.8661 32.8019 28.7385C32.8224 28.6564 32.8399 28.5713 32.8594 28.4895C32.8906 28.3708 32.9123 28.2657 33.0173 28.117C33.0543 28.0694 33.0963 28.0081 33.2201 27.9155C33.5218 27.6959 33.8705 27.7215 34.0467 27.7751C34.2374 27.8311 34.356 27.9111 34.4627 27.9995C34.5388 28.066 34.5978 28.133 34.6448 28.1934C34.6728 28.2295 34.6966 28.2635 34.7172 28.2944C34.8571 28.446 34.954 28.5924 35.0365 28.7259C35.0339 28.7389 35.0309 28.7519 35.0277 28.765C34.9867 28.9255 35.0454 29.066 35.1168 29.2286C35.1407 29.2895 35.2021 29.3869 35.1551 29.3333C35.155 29.3332 35.1549 29.3331 35.1548 29.333C35.1416 29.3253 35.0946 29.3426 35.0668 29.3667C35.0582 29.3735 35.0506 29.3802 35.044 29.3855C35.0221 29.4041 35.0248 29.3743 35.0158 29.3376C35.0081 29.2897 34.9709 29.2385 34.9828 29.2856C35.0777 29.4232 35.1876 29.2596 35.2013 29.1646C35.2102 29.1346 35.2186 29.1072 35.2323 29.0872C35.2757 29.0233 35.3926 29.0027 35.5062 29.0048C35.5972 29.009 35.7211 28.8945 35.9547 28.806C36.0423 28.7765 36.1962 28.7516 36.4283 28.8243C36.5077 28.8504 36.5899 28.8894 36.6679 28.9417C36.8749 29.0926 36.9112 29.1776 36.9675 29.2255C37.0721 29.3399 37.1048 29.2465 36.8832 29.1033L36.226 29.0747C36.2468 29.0559 36.2654 29.0394 36.283 29.0239C36.2967 29.0116 36.31 29 36.3234 28.988C36.3657 28.95 36.4249 28.9063 36.4922 28.8581C36.5723 28.8004 36.6649 28.7363 36.7421 28.6757C36.9821 28.6133 37.2564 28.4683 37.8362 28.5497C37.9799 28.5761 38.1299 28.6515 38.2325 28.7544L38.223 28.7495C38.1123 28.7449 38.0509 28.8061 38.0419 28.8819C38.0281 29.0345 38.1021 29.2336 38.0954 29.4393C38.0896 29.644 38.0766 29.8481 37.9349 29.9903C37.8614 30.0599 37.7305 30.1079 37.558 30.0721C37.5562 30.1204 37.5921 30.1597 37.6196 30.171C37.7358 30.2022 37.6021 30.2422 37.4617 30.343C37.3053 30.4424 37.1056 30.5707 36.8389 30.679L36.3045 30.7754L36.1331 30.6482C35.9353 30.5504 35.8369 30.4419 35.7697 30.3674C35.6759 30.2577 35.6372 30.1894 35.6158 30.158C35.6071 30.1302 35.5644 30.1303 35.7548 30.2771C35.955 30.4137 36.1704 30.3867 36.201 30.3738C36.2125 30.3706 36.2186 30.3679 36.2215 30.366C36.2529 30.4058 36.1489 30.5042 36.0678 30.5665C35.9974 30.6184 35.9156 30.6298 35.8427 30.6391C35.7919 30.6458 35.7448 30.6519 35.7005 30.6733C35.677 30.6847 35.6433 30.7022 35.5998 30.7226C35.5091 30.7635 35.3747 30.8263 35.1496 30.8547C34.9327 30.8866 34.5694 30.841 34.3138 30.6552C34.1809 30.5633 34.0779 30.4456 34.0049 30.3266C33.9313 30.2149 33.9041 30.1315 33.884 30.0613C33.8271 29.8312 33.8448 29.7082 33.8017 29.654C33.7322 29.5646 33.7141 29.458 33.698 29.3762C33.6829 29.298 33.6693 29.2416 33.6266 29.24C33.576 29.2388 33.5787 29.2156 33.5844 29.1859C33.587 29.1739 33.5905 29.1614 33.5939 29.1521C33.6071 29.154 33.618 29.155 33.6375 29.1605C33.6741 29.1754 33.8814 29.189 34.0271 29.05C34.0341 29.0436 34.04 29.0376 34.0451 29.0321C34.124 28.9067 34.0087 28.9898 34.0231 29.0717C34.0217 29.1785 33.9982 29.2937 33.94 29.366C33.913 29.4001 33.8923 29.4422 33.869 29.4889C33.839 29.5493 33.8058 29.6148 33.7557 29.6646C33.7147 29.7052 33.6564 29.7258 33.605 29.7431C33.5889 29.7486 33.5736 29.7538 33.5595 29.7593C33.5367 29.7981 33.5134 29.8374 33.4898 29.8769C33.4912 29.8866 33.493 29.8971 33.4947 29.9079C33.5031 29.9631 33.5129 30.0309 33.4927 30.0995C33.4615 30.2067 33.3825 30.2743 33.2934 30.3416C33.2224 30.3952 33.1468 30.4489 33.0615 30.5316C33.0021 30.5885 32.9327 30.6627 32.8341 30.7342C32.6951 30.8417 32.4569 30.9245 32.2855 30.8969C32.2213 30.8883 32.1719 30.8556 32.1282 30.8208C32.128 30.8206 32.1278 30.8204 32.1277 30.8203C32.1247 30.8179 32.1217 30.8155 32.1188 30.8131C31.775 30.747 31.5781 30.565 31.4325 30.4243C31.4151 30.407 31.3982 30.3896 31.3816 30.372C31.3651 30.3611 31.3489 30.35 31.3331 30.3388C31.2553 30.2838 31.1863 30.229 31.1225 30.204C31.0527 30.177 30.9583 30.0616 30.8744 29.9466C30.8187 29.871 30.7659 29.7954 30.7152 29.7393C30.6857 29.7065 30.6951 29.6607 30.7057 29.6152C30.7154 29.5724 30.7262 29.5298 30.7063 29.4962C30.6964 29.4795 30.679 29.4644 30.6605 29.4484C30.6443 29.4343 30.6273 29.4202 30.6138 29.4035C30.6013 29.3883 30.5994 29.3443 30.5978 29.2923C30.5968 29.2598 30.5958 29.2244 30.5928 29.191C30.546 29.1203 30.4962 29.0611 30.4847 29.072C30.4665 29.0856 30.4464 29.1083 30.4223 29.1386C30.4052 29.1607 30.3853 29.1874 30.3671 29.2168C30.3423 29.2566 30.3211 29.3029 30.3222 29.3548C30.3226 29.3951 30.3513 29.4338 30.385 29.4431C30.4005 29.4474 30.4176 29.4462 30.4324 29.4446C30.4496 29.4428 30.4649 29.4409 30.4777 29.4489C30.487 29.4547 30.4931 29.4673 30.5019 29.4827C30.5158 29.5073 30.5379 29.5411 30.5905 29.5632C30.6454 29.5861 30.7103 29.6061 30.7789 29.6186C31.1371 29.6754 31.2983 29.5833 31.3735 29.5535C31.4906 29.4933 31.4813 29.4788 31.4891 29.4829C31.4946 29.4867 31.4543 29.4819 31.4017 29.4927C31.3656 29.4995 31.325 29.5124 31.2951 29.532C31.2667 29.5504 31.2525 29.5895 31.2401 29.6268C31.2238 29.6732 31.2097 29.7172 31.1653 29.7306C31.1564 29.7331 31.1264 29.7202 31.0884 29.7045C31.0616 29.6935 31.0306 29.681 31.0005 29.6715C30.9683 29.7104 30.9336 29.7511 30.8995 29.79C30.9017 29.794 30.9039 29.7982 30.9061 29.8025C30.9062 29.8026 30.9062 29.8027 30.9063 29.8027C30.9565 29.8995 31.0285 30.0279 30.9131 30.0449C30.8838 30.0491 30.8452 30.0369 30.8104 30.0259C30.7763 30.0151 30.7454 30.0059 30.7309 30.0147C30.7144 30.0245 30.7182 30.0539 30.7222 30.086C30.7277 30.1314 30.7344 30.1817 30.6862 30.1916C30.6829 30.1922 30.6794 30.193 30.6757 30.1938C30.6411 30.2014 30.5892 30.2136 30.5099 30.2044C30.4244 30.2905 30.3387 30.3734 30.2495 30.4594C30.102 30.6011 29.9508 30.743 29.8003 30.8871C29.7271 30.9565 29.5948 30.9849 29.4298 30.9597C29.2641 30.9352 29.0782 30.8627 28.9092 30.7522C28.7401 30.6418 28.5992 30.5005 28.5121 30.3564C28.4246 30.2134 28.4013 30.0767 28.4402 29.9785C28.5041 29.8183 28.5708 29.6562 28.6408 29.497C28.6425 29.4872 28.6443 29.4774 28.6463 29.4678C28.6612 29.3968 28.6502 29.3133 28.64 29.229C28.6376 29.2097 28.6352 29.1905 28.633 29.1714Z" fill="white"/>
<path d="M28.2586 22.678C28.2909 22.5727 28.3951 22.5927 28.4559 22.6038C28.457 22.6039 28.458 22.6041 28.4591 22.6042C28.4732 22.6069 28.4857 22.606 28.5004 22.6048C28.5356 22.6021 28.5812 22.5985 28.6911 22.6431C28.7194 22.6362 28.7475 22.6306 28.7756 22.6263C29.0875 22.579 29.4206 22.6236 29.7658 22.7166C29.7701 22.7161 29.7744 22.7155 29.7788 22.715C29.865 22.7042 29.9757 22.6947 30.0443 22.7339C30.1311 22.7836 30.1868 22.8306 30.2345 22.8717C30.5094 22.9772 30.8001 23.1193 31.0503 23.2653C31.1274 23.3095 31.1991 23.3516 31.2547 23.3793C31.3022 23.4032 31.3365 23.4154 31.3466 23.4133L31.0801 23.3771C31.0845 23.3764 31.0889 23.3757 31.0932 23.3749C31.127 23.3513 31.1576 23.3239 31.1867 23.2983C31.2276 23.2623 31.2628 23.2302 31.294 23.218C31.3677 23.1887 31.4589 23.2158 31.5265 23.2356C31.5374 23.2389 31.5482 23.2419 31.5579 23.2445C31.6084 23.2259 31.6592 23.2061 31.7096 23.186C31.714 23.1936 31.7185 23.2015 31.7231 23.2096C31.78 23.3112 31.8351 23.3036 31.9231 23.2913C31.9612 23.286 32.0062 23.2798 32.0599 23.2813C32.095 23.2823 32.1174 23.3225 32.1358 23.3553C32.1412 23.365 32.1462 23.374 32.1512 23.3812C32.1682 23.4058 32.1796 23.3758 32.193 23.3403C32.2103 23.2943 32.2321 23.2389 32.2733 23.2821C32.405 23.4198 32.4451 23.313 32.4784 23.2318C32.488 23.208 32.4967 23.1865 32.5066 23.1742C32.539 23.134 32.5937 23.1662 32.6372 23.2135C32.6711 23.251 32.7307 23.2073 32.7783 23.1546C32.7963 23.1346 32.8215 23.133 32.8526 23.1314C32.8844 23.1299 32.9218 23.1286 32.9626 23.1069C33.0671 23.0524 33.1296 23.0293 33.1809 23.0111C33.1955 23.006 33.209 23.0014 33.2231 22.9968C33.2675 22.982 33.3239 22.9724 33.3841 22.9653C33.4567 22.9568 33.5348 22.9525 33.6 22.9424C33.6488 22.9618 33.6985 22.984 33.7476 23.0088C33.6928 23.013 33.6838 23.0387 33.7036 23.0604C33.7181 23.0778 33.7484 23.1708 33.7769 23.3231C33.8053 23.4755 33.8252 23.6741 33.8249 23.8799C33.8246 24.0858 33.8076 24.2844 33.7716 24.4366C33.7357 24.5886 33.6795 24.681 33.6067 24.6932C33.5124 24.7081 33.393 24.7197 33.2326 24.6911C33.2272 24.7005 33.2149 24.7075 33.2016 24.714C33.1558 24.7365 33.0972 24.752 33.0228 24.7506C32.9711 24.7496 32.9121 24.746 32.8481 24.7405C32.8414 24.7399 32.8347 24.7393 32.8281 24.7386C32.7766 24.7923 32.7242 24.8428 32.6849 24.8627C32.6524 24.8792 32.625 24.8546 32.6007 24.8338C32.5844 24.8194 32.5696 24.8067 32.5561 24.8103C32.5489 24.8123 32.5389 24.8164 32.5273 24.8214C32.4794 24.8418 32.3964 24.8772 32.3094 24.8375C32.2714 24.8198 32.2237 24.7818 32.1785 24.7455C32.1132 24.6937 32.0521 24.6454 32.0265 24.6654C31.9812 24.7005 31.9223 24.6819 31.8694 24.6654C31.82 24.6496 31.7752 24.6358 31.7555 24.6724C31.7316 24.7161 31.7048 24.7022 31.6662 24.6813C31.6395 24.6668 31.606 24.6491 31.5632 24.6448C31.5139 24.6398 31.4761 24.6145 31.445 24.5928C31.4008 24.5623 31.3674 24.5393 31.3253 24.5905C31.2778 24.6474 31.2266 24.685 31.1822 24.6715C31.179 24.6705 31.1758 24.6698 31.1725 24.6693L30.9123 24.6339C30.8859 24.6201 30.856 24.6101 30.8286 24.6002C30.7848 24.5845 30.7452 24.5686 30.7233 24.5369C30.7048 24.5105 30.7047 24.4657 30.7048 24.4262C30.7049 24.4139 30.7048 24.4021 30.7048 24.3917C30.6886 24.3842 30.6722 24.3768 30.6572 24.3708C30.652 24.3754 30.6464 24.3806 30.6406 24.3859C30.6113 24.4127 30.5766 24.4461 30.5498 24.4585C30.5074 24.4781 30.4954 24.4485 30.4809 24.417C30.4694 24.3924 30.4571 24.3671 30.4328 24.3659C30.4165 24.3652 30.3936 24.3748 30.3727 24.3853C30.3403 24.4006 30.3112 24.4173 30.2969 24.3983C30.2914 24.3912 30.2921 24.3656 30.2919 24.3399C30.292 24.3397 30.292 24.3396 30.292 24.3394C30.292 24.3377 30.2919 24.336 30.2919 24.3342C30.2423 24.3424 30.1929 24.3549 30.1428 24.3702C30.1378 24.376 30.1327 24.3818 30.1277 24.3874C30.1038 24.4151 30.0815 24.4425 30.0644 24.4831C30.0453 24.5271 30.0116 24.5505 29.9728 24.5762C29.9484 24.593 29.9235 24.6108 29.902 24.6355C29.8892 24.6499 29.8795 24.6237 29.8683 24.5968C29.858 24.5717 29.8467 24.546 29.8337 24.5522C29.8272 24.5553 29.82 24.566 29.8124 24.5774C29.8055 24.5875 29.7992 24.5982 29.7921 24.6048C29.7856 24.6109 29.771 24.5969 29.751 24.5793C29.7387 24.5684 29.724 24.5563 29.7089 24.5464C29.672 24.5636 29.6315 24.581 29.5935 24.5977C29.5867 24.6208 29.5815 24.6506 29.5785 24.6887C29.5763 24.716 29.5751 24.7485 29.5739 24.7818C29.5723 24.8271 29.5707 24.8739 29.5669 24.9114C29.5638 24.9407 29.5587 24.9527 29.5537 24.941C29.5514 24.9355 29.5491 24.9251 29.547 24.9156C29.5446 24.9048 29.5425 24.8952 29.5408 24.8956C29.5396 24.8959 29.539 24.9038 29.5382 24.9133C29.5369 24.9284 29.5352 24.948 29.5303 24.9491C29.5129 24.9531 29.4927 24.9486 29.4719 24.9444C29.4489 24.9397 29.4252 24.9355 29.4079 24.9432C29.3893 24.9517 29.3581 24.9262 29.3251 24.9012C29.3025 24.8837 29.2775 24.8668 29.2598 24.8608C29.2417 24.8551 29.2258 24.8734 29.2104 24.8912C29.1918 24.9127 29.1738 24.9336 29.1522 24.9112C29.1479 24.9067 29.1387 24.8764 29.1272 24.8386C29.1193 24.8117 29.1101 24.7811 29.1006 24.753C29.0784 24.7563 29.0556 24.7586 29.0322 24.76C29.0321 24.7643 29.032 24.7687 29.0318 24.7732C29.0318 24.7733 29.0318 24.7734 29.0318 24.7735C29.029 24.8748 29.0252 25.0134 28.9765 24.9394C28.9641 24.9206 28.952 24.884 28.9409 24.8511C28.9301 24.8188 28.9203 24.7899 28.9125 24.7848C28.9036 24.7791 28.8982 24.8011 28.8924 24.825C28.8842 24.8586 28.8751 24.8961 28.8534 24.8667C28.8519 24.8647 28.8503 24.8625 28.8487 24.8603C28.8331 24.8394 28.809 24.8088 28.7795 24.7436C28.7274 24.7346 28.673 24.7233 28.6164 24.7107C28.5256 24.689 28.4282 24.6641 28.3339 24.6395C28.2879 24.6273 28.2261 24.5444 28.1603 24.4042C28.0945 24.2637 28.0305 24.0783 27.983 23.882C27.9354 23.6857 27.9078 23.4916 27.9056 23.3359C27.9033 23.1805 27.9267 23.0776 27.968 23.0453C28.0334 22.9936 28.1083 22.9403 28.177 22.892C28.1802 22.887 28.1834 22.8822 28.1866 22.8776C28.2097 22.8438 28.2287 22.7819 28.2462 22.7202C28.2503 22.7061 28.2544 22.6919 28.2586 22.678Z" fill="white"/>
<path d="M15.3719 23.3845C15.4073 23.2836 15.4925 23.3142 15.5433 23.3303C15.5442 23.3305 15.5451 23.3308 15.546 23.331C15.5577 23.3349 15.5684 23.335 15.5809 23.3351C15.6111 23.3351 15.6487 23.3356 15.7393 23.3867C15.7632 23.3815 15.787 23.3773 15.8106 23.3743C16.067 23.3417 16.3309 23.3835 16.5989 23.432C16.602 23.4309 16.605 23.4299 16.6081 23.4288C16.6685 23.4074 16.7428 23.3803 16.7987 23.4048C16.8696 23.4361 16.919 23.468 16.9617 23.4954C17.174 23.5281 17.3866 23.5453 17.5881 23.5143C17.6526 23.5042 17.713 23.4903 17.7758 23.4698C17.8328 23.4512 17.889 23.4291 17.949 23.4029C17.9777 23.3711 18.005 23.3356 18.0339 23.302C18.0727 23.2552 18.1152 23.212 18.158 23.1903C18.2118 23.1634 18.2824 23.1494 18.3632 23.1457C18.5262 23.127 18.6813 23.1591 18.7832 23.1975C18.8174 23.2101 18.8477 23.2234 18.8736 23.2357C19.0284 23.2742 19.1361 23.3252 19.223 23.3656C19.2237 23.3758 19.2242 23.3863 19.2244 23.3969C19.2261 23.5284 19.2865 23.5743 19.3608 23.6327C19.3926 23.6575 19.4258 23.6838 19.4536 23.7155C19.4713 23.7357 19.4549 23.7765 19.4425 23.8106C19.4388 23.8205 19.4354 23.8299 19.4331 23.8377C19.4253 23.8648 19.4504 23.8476 19.4779 23.8256C19.5141 23.7973 19.5524 23.7596 19.5398 23.8073C19.5058 23.9623 19.566 23.8726 19.5814 23.7962C19.587 23.7741 19.5905 23.7538 19.591 23.7422C19.5915 23.7311 19.5896 23.7261 19.5865 23.7259C19.6405 23.7358 19.689 23.7767 19.7182 23.8215C19.7521 23.8715 19.8393 23.858 19.9003 23.826C19.9235 23.8138 19.9452 23.8209 19.9643 23.827C19.9839 23.8332 20.0019 23.8383 20.0102 23.8183C20.0294 23.7651 19.9263 23.7214 19.8394 23.7173C19.8136 23.7155 19.7875 23.7158 19.7609 23.7177C19.7372 23.7194 19.7118 23.7232 19.6855 23.7294L19.4387 23.8864C19.3885 23.916 19.3628 23.933 19.3463 23.9368C19.3197 23.9435 19.3157 23.9179 19.3057 23.8866C19.3377 23.8634 19.3813 23.8196 19.4465 23.7495C19.4935 23.7015 19.5305 23.647 19.6759 23.5164C19.7276 23.4729 19.7988 23.4195 19.9252 23.3676C20.0476 23.316 20.2602 23.2727 20.46 23.324C20.8742 23.4494 20.9021 23.678 20.8978 23.7741C20.8647 23.99 20.6716 24.0778 20.4915 24.1714C20.3095 24.2643 20.1053 24.315 20.0169 24.4554C19.9829 24.5171 19.9681 24.6822 20.2684 24.788C20.5945 24.8648 20.7722 24.7159 20.8159 24.6893C20.8933 24.6267 20.8909 24.6364 20.8977 24.6516C20.9019 24.6818 20.8918 24.7394 20.8663 24.815C20.8307 24.9018 20.8077 25.0049 20.6187 25.1987L20.3736 25.3546C20.1556 25.4573 19.9144 25.4645 19.7693 25.443C19.527 25.4053 19.4347 25.3504 19.3745 25.3238C19.3686 25.3209 19.3632 25.318 19.3584 25.3153C19.3005 25.3478 19.2875 25.3931 19.3008 25.4132C19.2969 25.413 19.2931 25.4129 19.2893 25.4127C19.1824 25.4073 19.1181 25.3593 19.0697 25.3188C19.0363 25.2907 19.0096 25.2654 18.9776 25.2547C18.9604 25.2489 18.9367 25.2421 18.9091 25.2335C18.7949 25.1995 18.6262 25.1261 18.5577 25.0123C18.5261 24.9617 18.5079 24.8923 18.497 24.8303C18.4812 24.7415 18.4784 24.6676 18.4499 24.6665C18.3999 24.6643 18.3883 24.6242 18.3885 24.5977C18.3884 24.5721 18.3989 24.5579 18.3934 24.5929C18.3873 24.635 18.4135 24.6286 18.458 24.6129C18.4892 24.6016 18.5338 24.5872 18.5912 24.5712C18.5954 24.57 18.5995 24.5686 18.6035 24.5672C18.5902 24.5579 18.5672 24.5359 18.5458 24.5179C18.5122 24.4911 18.4818 24.4731 18.4597 24.5298C18.436 24.5926 18.3994 24.6403 18.3566 24.637C18.3368 24.6356 18.317 24.6442 18.2965 24.6531C18.2683 24.6652 18.2399 24.6775 18.2052 24.6689C18.1768 24.6619 18.1461 24.6298 18.1178 24.6018C18.1091 24.593 18.1007 24.5847 18.0928 24.5775C18.0742 24.584 18.0567 24.5904 18.0381 24.5975C18.037 24.6046 18.036 24.6124 18.0348 24.6205C18.0283 24.6612 18.0224 24.7104 18.003 24.74C17.9712 24.787 17.9306 24.7758 17.8847 24.7646C17.8497 24.7555 17.8149 24.7455 17.7804 24.7623C17.7574 24.7736 17.7354 24.7967 17.7117 24.8198C17.6757 24.8544 17.6439 24.8871 17.6112 24.88C17.5992 24.8773 17.5836 24.8554 17.5686 24.8334C17.5685 24.8333 17.5684 24.8331 17.5683 24.833C17.5673 24.8315 17.5663 24.83 17.5653 24.8286C17.5038 24.8638 17.44 24.9009 17.3767 24.9383C17.3721 24.9459 17.3675 24.9535 17.3628 24.961C17.3406 24.9974 17.3198 25.0325 17.3102 25.0779C17.3001 25.127 17.2541 25.1642 17.2074 25.2026C17.1765 25.2278 17.1418 25.2542 17.1186 25.2847C17.1045 25.3026 17.0831 25.2805 17.0611 25.2576C17.0406 25.2362 17.0196 25.2143 17.0029 25.2239C16.9945 25.2287 16.9865 25.2411 16.9789 25.2542C16.9721 25.2658 16.9648 25.278 16.9562 25.2863C16.9482 25.2939 16.9254 25.2838 16.8958 25.271C16.8775 25.263 16.8567 25.2541 16.8351 25.2474C16.788 25.2722 16.7402 25.296 16.6904 25.3188C16.6831 25.343 16.6789 25.3735 16.6778 25.412C16.677 25.4396 16.6779 25.4723 16.6786 25.5057C16.6797 25.5512 16.6807 25.5982 16.6777 25.6363C16.6753 25.6661 16.6688 25.6789 16.6613 25.6679C16.6578 25.6627 16.6541 25.6526 16.6508 25.6434C16.647 25.6329 16.6436 25.6236 16.6414 25.6242C16.6398 25.6247 16.6393 25.6326 16.6387 25.6423C16.6377 25.6576 16.6364 25.6775 16.6298 25.6792C16.6056 25.6856 16.5752 25.6841 16.5474 25.6821C16.5166 25.6799 16.4861 25.6778 16.4632 25.687C16.4379 25.6973 16.3943 25.6745 16.3532 25.6512C16.3247 25.635 16.296 25.6188 16.2724 25.6137C16.2493 25.6088 16.2284 25.6277 16.2078 25.6461C16.1828 25.6683 16.1602 25.6895 16.1354 25.6672C16.1305 25.6626 16.1211 25.6323 16.1093 25.5944C16.101 25.5675 16.0915 25.5367 16.0816 25.5085C16.0543 25.512 16.0265 25.5142 15.9984 25.5152C15.9979 25.5195 15.9974 25.5239 15.997 25.5284C15.997 25.5286 15.997 25.5287 15.9969 25.5288C15.9859 25.6304 15.9712 25.7693 15.9186 25.6937C15.9053 25.6745 15.8939 25.6374 15.8837 25.604C15.8737 25.5713 15.8648 25.542 15.8561 25.5366C15.8461 25.5305 15.8377 25.5523 15.8285 25.576C15.8155 25.6093 15.8007 25.6465 15.7782 25.6159C15.7767 25.6138 15.775 25.6115 15.7733 25.6092C15.7566 25.5875 15.734 25.5552 15.7071 25.4881C15.648 25.4759 15.5875 25.4603 15.526 25.4426C15.4287 25.4126 15.3239 25.3772 15.2268 25.3405C15.1789 25.3224 15.1259 25.2318 15.0803 25.0834C15.0347 24.9347 15.0003 24.7416 14.9839 24.5403C14.9674 24.339 14.9698 24.143 14.9887 23.989C15.0077 23.8351 15.0415 23.7371 15.0826 23.7112C15.1476 23.6695 15.2193 23.6268 15.2848 23.5872C15.288 23.5827 15.2913 23.5783 15.2945 23.5742C15.3186 23.5434 15.3382 23.4843 15.3582 23.425C15.3628 23.4114 15.3673 23.3977 15.3719 23.3845Z" fill="white"/>
<path d="M13.5088 27.5612C13.5685 27.4629 13.6941 27.4994 13.7628 27.5196C13.764 27.5199 13.7653 27.5202 13.7666 27.5205C13.7831 27.5253 13.7985 27.5263 13.8164 27.5273C13.8585 27.5299 13.9184 27.5332 14.0401 27.5926C14.0761 27.5897 14.1123 27.5878 14.1478 27.5873C14.5345 27.5823 14.9421 27.6569 15.384 27.7962C15.3898 27.7962 15.3957 27.7963 15.4017 27.7964C15.5154 27.7976 15.6655 27.8064 15.7523 27.8583C15.8632 27.9239 15.9342 27.9835 15.9911 28.0347C16.3493 28.2028 16.6709 28.4293 16.9477 28.6363C16.9481 28.6367 16.9486 28.6371 16.949 28.6375C16.9923 28.6748 17.0405 28.7047 17.0935 28.7261C17.1423 28.7458 17.1949 28.7593 17.2515 28.7671C17.2887 28.7545 17.3249 28.7363 17.3583 28.7185C17.4055 28.6936 17.4472 28.6698 17.4815 28.664C17.5625 28.6501 17.6635 28.6914 17.7506 28.7213C17.7647 28.7262 17.7781 28.7308 17.7909 28.7348C17.8627 28.7242 17.9405 28.7124 18.0272 28.7027C18.0325 28.711 18.0378 28.7197 18.0432 28.7286C18.1119 28.841 18.1994 28.8419 18.3737 28.8693C18.4494 28.8822 18.5441 28.901 18.6601 28.9509C18.7352 28.9837 18.7579 29.0423 18.773 29.0882C18.7775 29.1018 18.7816 29.1145 18.7864 29.1258C18.8027 29.1641 18.845 29.1552 18.8993 29.1498L18.752 29.0828C18.752 29.0827 18.752 29.0827 18.7521 29.0827C18.7858 29.047 18.8231 29.0029 18.8466 29.0574C18.9274 29.232 19.0109 29.1399 19.0606 29.0691C19.076 29.0484 19.0896 29.0295 19.1022 29.0197C19.1427 28.988 19.1888 29.0303 19.2245 29.0843C19.2526 29.1273 19.3217 29.0931 19.373 29.0454C19.3923 29.0274 19.4172 29.0281 19.4463 29.0287C19.4767 29.0294 19.512 29.0298 19.5493 29.0088C19.6437 28.9554 19.6897 28.9271 19.726 28.9047C19.7364 28.8982 19.7454 28.8923 19.7549 28.8861C19.7839 28.8666 19.8194 28.8492 19.8481 28.8311C19.8801 28.8105 19.9134 28.7841 19.8693 28.7694C19.856 28.7765 19.8379 28.7824 19.7744 28.812L19.9272 28.7617C20.0795 28.7409 19.9612 28.7777 19.9378 28.8066C19.9017 28.8372 19.8979 28.8598 19.9099 28.8678C19.9233 28.8785 20.005 28.9303 20.1322 29.0188C20.2591 29.1078 20.4189 29.2278 20.5678 29.37C20.7164 29.5124 20.8433 29.6677 20.9096 29.8161C20.9757 29.964 20.9732 30.0938 20.8942 30.1741C20.8267 30.242 20.7409 30.3162 20.6201 30.3834C20.5105 30.4504 20.3118 30.5019 20.3447 30.507L20.4748 30.4642C20.3747 30.5096 20.3314 30.5213 20.2889 30.536C19.9966 30.6277 19.8488 30.6457 19.6532 30.6519C19.5235 30.6536 19.3954 30.6457 19.2673 30.6293C19.254 30.6276 19.2409 30.6258 19.2278 30.6239C19.1165 30.6675 19.0006 30.7019 18.9188 30.708C18.8513 30.713 18.8064 30.6788 18.7687 30.6493C18.7427 30.6289 18.72 30.6107 18.6939 30.6082C18.6798 30.6069 18.6604 30.6065 18.6368 30.6057C18.5614 30.6031 18.4409 30.5958 18.3215 30.5437L18.0805 30.4341C18.0906 30.4352 18.1012 30.4328 18.1112 30.4258C18.1323 30.4117 18.1517 30.3715 18.1511 30.3284C18.1519 30.2668 18.1159 30.2044 18.0911 30.2185C18.0486 30.2429 17.9961 30.2134 17.9399 30.1882C17.8869 30.1641 17.8341 30.1438 17.8018 30.1769C17.7635 30.2165 17.7314 30.1987 17.6818 30.1721C17.6472 30.1535 17.6043 30.1308 17.5426 30.1188C17.471 30.1049 17.42 30.0719 17.3771 30.0433C17.3166 30.0028 17.273 29.9718 17.1922 30.0077C17.102 30.0475 17.0034 30.0619 16.9353 30.0277C16.9046 30.0123 16.8668 30.0042 16.8272 29.9945C16.7752 29.9818 16.7194 29.966 16.677 29.93C16.6417 29.9002 16.6244 29.85 16.6101 29.8054C16.6056 29.7915 16.6014 29.7782 16.5974 29.7663C16.5675 29.7536 16.5373 29.7403 16.5074 29.7267C16.4998 29.7301 16.4917 29.734 16.4831 29.7379C16.4406 29.7577 16.3851 29.7796 16.3338 29.7762C16.304 29.7741 16.2787 29.7652 16.2567 29.7519C16.2334 29.7382 16.2193 29.7128 16.2046 29.6867C16.186 29.6545 16.1667 29.6214 16.13 29.6096C16.1049 29.6015 16.0723 29.603 16.0397 29.6051C15.9919 29.6082 15.9463 29.6136 15.9273 29.5891C15.9202 29.5799 15.9217 29.5533 15.923 29.5268C15.923 29.5267 15.9231 29.5265 15.9231 29.5263C15.9232 29.5245 15.9232 29.5228 15.9233 29.521C15.8528 29.5125 15.7826 29.51 15.7128 29.5123C15.7054 29.5168 15.698 29.5212 15.6908 29.5257C15.6554 29.5472 15.622 29.5692 15.5951 29.606C15.5658 29.6457 15.5156 29.661 15.4623 29.6792C15.4273 29.6911 15.3912 29.7042 15.3599 29.725C15.3415 29.7372 15.3305 29.7094 15.3179 29.6808C15.3062 29.6541 15.2932 29.6266 15.2748 29.6308C15.2657 29.6329 15.2549 29.6424 15.2434 29.6526C15.2333 29.6616 15.2226 29.6712 15.2118 29.6767C15.2016 29.6817 15.1827 29.6656 15.1569 29.6454C15.1411 29.6329 15.1217 29.6187 15.1022 29.6069C15.0461 29.6189 14.9895 29.6311 14.9307 29.643C14.9178 29.6651 14.9065 29.6941 14.8969 29.7315C14.89 29.7584 14.8838 29.7906 14.8776 29.8235C14.869 29.8683 14.8603 29.9146 14.8492 29.9514C14.8406 29.9801 14.8312 29.9914 14.8254 29.9792C14.8227 29.9735 14.8208 29.9628 14.819 29.9532C14.8171 29.9421 14.8154 29.9323 14.8129 29.9325C14.8112 29.9327 14.8091 29.9404 14.8066 29.9498C14.8026 29.9647 14.7974 29.9839 14.7902 29.9844C14.7636 29.9863 14.7319 29.9795 14.7015 29.9729C14.668 29.9656 14.6339 29.9586 14.6061 29.9642C14.576 29.9705 14.5328 29.9415 14.4871 29.9129C14.4565 29.8929 14.4251 29.8731 14.3976 29.8651C14.3704 29.8572 14.3429 29.8734 14.3164 29.8893C14.2843 29.9083 14.2528 29.9268 14.2252 29.9019C14.2198 29.8968 14.2128 29.8657 14.2038 29.8267C14.1975 29.799 14.1901 29.7675 14.1818 29.7384C14.1478 29.7389 14.1126 29.7382 14.0776 29.7365C14.0765 29.7408 14.0754 29.7451 14.0742 29.7495C14.0742 29.7496 14.0742 29.7497 14.0742 29.7498C14.048 29.8499 14.0125 29.9867 13.955 29.9067C13.9402 29.8863 13.9307 29.8484 13.9222 29.8143C13.9138 29.7808 13.9062 29.7508 13.896 29.7446C13.8843 29.7377 13.8711 29.7587 13.8566 29.7815C13.8363 29.8136 13.8134 29.8494 13.7885 29.8171C13.7868 29.8149 13.785 29.8125 13.7831 29.8101C13.7655 29.7871 13.7399 29.7531 13.713 29.6841C13.6368 29.6674 13.5617 29.6474 13.4849 29.6255C13.3577 29.589 13.2305 29.5469 13.1021 29.5047C13.0386 29.4839 12.9798 29.3904 12.9322 29.2396C12.8851 29.0886 12.8561 28.8939 12.852 28.692C12.8479 28.4901 12.8689 28.2945 12.9091 28.1417C12.9498 27.989 13.0036 27.8931 13.0654 27.8695C13.1645 27.8314 13.263 27.7932 13.3613 27.7578C13.3664 27.7535 13.3715 27.7493 13.3765 27.7454C13.4142 27.7162 13.4504 27.6584 13.4849 27.6007C13.4929 27.5874 13.5009 27.5741 13.5088 27.5612Z" fill="white"/>
<path d="M43.4975 24.3808C43.5943 24.5948 43.5548 25.0067 43.5331 25.2339C43.5327 25.2381 43.5324 25.2423 43.532 25.2464C43.5269 25.2996 43.5256 25.3517 43.5241 25.4105C43.5206 25.5524 43.5159 25.7458 43.4542 26.146C43.4548 26.1772 43.4553 26.2078 43.4558 26.2378C43.4571 26.321 43.4582 26.4017 43.4592 26.4824C43.4689 27.2207 43.4828 27.6976 43.5926 28.5652C43.6131 28.9813 43.668 29.2642 43.7583 29.8826C43.7674 29.9672 43.7732 30.0473 43.7771 30.124C43.7798 30.1426 43.7824 30.1617 43.7849 30.1804C43.833 30.5465 43.8618 30.9265 43.847 31.1563C43.8427 31.2182 43.8385 31.275 43.8345 31.3278C43.8234 31.5622 43.8038 31.7399 43.7829 31.8937C43.7767 32.1559 43.7638 32.4233 43.7155 32.7242C43.6836 33.0006 43.5131 33.4484 43.4351 33.5774C43.1879 34.1456 42.7621 34.4219 42.4189 34.6261C42.2081 34.7499 41.9575 34.8522 41.7357 34.9126C41.5748 34.9572 41.4474 34.9852 41.3866 35.0083C41.2552 35.0575 41.1095 35.1265 40.9557 35.203C40.7024 35.3292 40.4252 35.474 40.1224 35.5994C39.9528 35.689 39.7821 35.7721 39.6154 35.8402C39.4023 35.9277 39.1964 35.99 39.0175 36.0209C39.0063 36.0233 38.9951 36.0255 38.9841 36.0276C38.6786 36.0855 38.2821 36.1347 37.9784 36.1763C37.9289 36.183 37.8817 36.1896 37.8379 36.1959C37.6013 36.2635 37.3603 36.3352 37.0984 36.4015C37.079 36.3971 37.0595 36.3923 37.0398 36.3873C36.9309 36.3599 36.8145 36.3543 36.6688 36.3573C36.4102 36.3613 36.2693 36.3551 36.0242 36.358C35.8441 36.3587 35.6373 36.3582 35.3941 36.3488C35.2384 36.3428 35.1579 36.2997 35.0934 36.2646C35.0742 36.2543 35.0562 36.2447 35.0378 36.2369C34.9759 36.2101 34.9088 36.2383 34.8315 36.2717C34.7299 36.3151 34.6095 36.3672 34.4498 36.3197C33.9413 36.1685 33.7181 36.2747 33.5514 36.3547C33.5025 36.3782 33.458 36.3995 33.4127 36.4118C33.3257 36.4353 33.2164 36.4338 33.1092 36.4195L33.1878 36.413C33.1044 36.4126 33.0194 36.4045 32.9467 36.3917C32.8039 36.3681 32.5361 36.4306 32.3318 36.4911C32.2544 36.5142 32.1491 36.5195 32.0254 36.5236C31.8974 36.5279 31.7501 36.5309 31.593 36.5528C31.1961 36.6072 30.9857 36.6255 30.8172 36.6414C30.7691 36.6458 30.724 36.6496 30.6795 36.6536C30.5379 36.6662 30.364 36.673 30.1876 36.6785C29.9771 36.6852 29.7649 36.6902 29.6044 36.7042C29.4247 36.6817 29.2461 36.6574 29.0759 36.6348C28.9894 36.6235 28.9081 36.6128 28.8313 36.6037C28.7666 36.5932 28.6538 36.5929 28.7214 36.5798L28.6637 36.5864C28.6 36.5877 28.5398 36.5874 28.4813 36.5863C28.2396 36.581 28.0312 36.4887 27.879 36.3372C27.7274 36.1853 27.6448 35.9865 27.6445 35.7806C27.6444 35.5748 27.7289 35.3763 27.8757 35.2236C28.0218 35.0708 28.219 34.9776 28.4028 34.9526C28.447 34.9465 28.4895 34.94 28.5287 34.9329L28.4802 34.9384C28.8649 34.8885 28.9839 34.9046 29.1945 34.8972C29.388 34.8948 29.5759 34.8945 29.7618 34.8947C30.2749 34.8955 30.7776 34.9002 31.2718 34.9074C31.6178 34.9125 31.9593 34.9134 32.294 34.9034C32.3284 34.9024 32.3625 34.9013 32.397 34.9C32.6013 34.8489 32.7983 34.7934 32.9565 34.7487L33.0635 34.7398C33.1306 34.7302 33.1941 34.7225 33.2504 34.717C33.4313 34.6995 33.5631 34.7248 33.6757 34.7465C33.7532 34.7615 33.8216 34.7749 33.8905 34.7721C33.9275 34.7706 33.9782 34.7671 34.039 34.7631C34.2879 34.7461 34.7094 34.7204 35.0909 34.7723C35.2602 34.7952 35.4561 34.8399 35.6415 34.8823C35.9072 34.9432 36.1542 34.9986 36.2714 34.9803C36.3567 34.9665 36.4912 34.9601 36.5042 34.9616C36.6022 34.9545 36.721 34.9468 36.8345 34.9368C37.0318 34.9191 37.2163 34.8953 37.3109 34.8386C37.4242 34.7707 37.5336 34.7624 37.6993 34.7504C37.8143 34.7422 37.956 34.7317 38.1494 34.7013C38.3732 34.6664 38.541 34.6677 38.6845 34.6721C38.7505 34.6742 38.8119 34.6769 38.8719 34.6776C38.9645 34.6822 39.0544 34.6699 39.1596 34.6142C39.3326 34.5226 39.5063 34.4285 39.6635 34.3833C39.735 34.363 39.8137 34.3273 39.8967 34.2873C40.0068 34.2343 40.1246 34.1735 40.2465 34.1339C40.3468 34.1013 40.4449 34.0968 40.533 34.0931C40.5603 34.092 40.587 34.0908 40.6123 34.0889C40.6923 34.0498 40.775 34.0104 40.8618 33.972C40.8735 33.96 40.8855 33.9472 40.8987 33.9337C40.9122 33.92 40.9265 33.9056 40.9418 33.8909C41.0174 33.8271 41.1078 33.7657 41.1955 33.7225C41.3684 33.6375 41.4626 33.6311 41.58 33.602C41.633 33.589 41.6878 33.5721 41.7442 33.5438C41.7866 33.5222 41.828 33.4967 41.8663 33.466C41.9307 33.4146 41.9891 33.3458 42.0285 33.2828C42.0895 33.1868 42.0982 33.1189 42.1262 33.0893C42.1275 33.0878 42.1292 33.0865 42.131 33.0852C42.1583 33.0385 42.1937 33.0108 42.2265 32.9882C42.2267 32.9881 42.2269 32.988 42.2271 32.9879C42.2297 32.9861 42.2322 32.9844 42.2347 32.9826C42.311 32.7594 42.3064 32.5951 42.2924 32.3264C42.2864 32.3037 42.2803 32.2825 42.2741 32.2595C42.244 32.1499 42.2102 32.0416 42.1645 31.972C42.1166 31.8984 42.0787 31.7133 42.0306 31.5078C42.0291 31.5008 42.0276 31.4938 42.0261 31.4868C41.9918 31.3254 41.9609 31.1629 41.9266 31.0349C41.9066 30.96 41.9277 30.8876 41.9495 30.8147C41.9698 30.7466 41.9907 30.678 41.9789 30.6074C41.9731 30.5722 41.9593 30.5351 41.9445 30.4969C41.9314 30.4634 41.9174 30.4285 41.9071 30.3931C41.8975 30.3605 41.9036 30.2842 41.9083 30.2003C41.9085 30.1967 41.9087 30.1932 41.9089 30.1896C41.9131 30.1503 41.9128 30.0919 41.9065 30.0219C41.8456 29.8314 41.7703 29.592 41.711 29.3536C41.6792 29.3075 41.6422 29.2681 41.5989 29.2396C41.5678 29.2188 41.5322 29.2025 41.4958 29.1856C41.4462 29.162 41.3952 29.1379 41.3517 29.0991C41.3177 29.0689 41.3003 29.0295 41.3084 29.0002C41.3122 28.9865 41.3213 28.9754 41.3296 28.9652C41.3391 28.9536 41.3476 28.9433 41.3458 28.9322C41.3445 28.9242 41.3357 28.9167 41.3251 28.9078C41.309 28.8943 41.2884 28.8767 41.2823 28.847C41.2821 28.8463 41.2819 28.8455 41.2818 28.8448C41.273 28.7921 41.2614 28.6891 41.2464 28.5677C41.2298 28.4336 41.2129 28.2867 41.1914 28.1741C41.1668 28.0464 41.1732 27.859 41.1857 27.6768C41.1943 27.5496 41.2052 27.4231 41.207 27.3181C41.2087 27.2147 41.1874 27.1079 41.1678 27.0061C41.1442 26.8821 41.123 26.7663 41.1463 26.6643C41.151 26.6444 41.1818 26.619 41.2204 26.587C41.2478 26.5645 41.2791 26.5371 41.308 26.5089C41.3069 26.4188 41.307 26.3294 41.3083 26.2378C41.3088 26.2053 41.3093 26.1714 41.31 26.138C41.3058 26.1339 41.3014 26.1296 41.297 26.1253C41.2969 26.1253 41.2968 26.1252 41.2967 26.1251C41.1972 26.0266 41.0611 25.8926 41.1423 25.7043C41.163 25.6563 41.2011 25.6258 41.2354 25.599C41.2691 25.5725 41.2992 25.5479 41.3056 25.5133C41.3128 25.4743 41.2921 25.426 41.2696 25.3758C41.238 25.3039 41.2027 25.224 41.2355 25.1436C41.2378 25.1382 41.2402 25.1323 41.2427 25.1261C41.2661 25.0676 41.3007 24.9816 41.3703 24.8958C41.3889 24.641 41.4106 24.3868 41.4344 24.1317C41.474 23.7076 41.5191 23.283 41.5642 22.8586C41.5864 22.6521 41.6812 22.4541 41.8329 22.3081C41.9849 22.1621 42.1801 22.0801 42.3821 22.0801C42.5841 22.0801 42.7792 22.1621 42.9311 22.3081C43.0829 22.4541 43.1776 22.6521 43.1998 22.8586C43.2356 23.1951 43.2715 23.5322 43.3045 23.8687C43.3087 23.8864 43.3128 23.9042 43.3166 23.9218C43.3449 24.0529 43.4017 24.175 43.4586 24.2967C43.4717 24.3248 43.4848 24.3528 43.4975 24.3808Z" fill="white"/>
</svg>
