<svg width="47" height="53" viewBox="0 0 47 53" fill="none" xmlns="http://www.w3.org/2000/svg">
<g filter="url(#filter0_d_409_236)">
<path d="M12.6006 13.6209L12.6006 4H39.9993V13.8301L12.6006 13.6209Z" fill="#B1060F"/>
</g>
<g filter="url(#filter1_d_409_236)">
<path d="M27.6601 34.7451C27.8693 32.4444 27.6601 13.8301 27.6601 13.8301V4.00001L40 4V34.5359C39.7362 38.5981 39.1761 40.4897 37.281 43.1111C33.2157 47.6251 30.1492 48.9182 23.0588 48.9673C15.737 48.7949 12.5249 47.2494 8 42.4836L14.902 34.5359C18.1631 38.1692 19.9506 39.2918 23.0588 38.9281C25.7516 38.5446 27.451 37.0457 27.6601 34.7451Z" fill="#E50914"/>
</g>
<defs>
<filter id="filter0_d_409_236" x="4.60059" y="0" width="35.3989" height="17.8301" filterUnits="userSpaceOnUse" color-interpolation-filters="sRGB">
<feFlood flood-opacity="0" result="BackgroundImageFix"/>
<feColorMatrix in="SourceAlpha" type="matrix" values="0 0 0 0 0 0 0 0 0 0 0 0 0 0 0 0 0 0 127 0" result="hardAlpha"/>
<feOffset dx="-4"/>
<feGaussianBlur stdDeviation="2"/>
<feComposite in2="hardAlpha" operator="out"/>
<feColorMatrix type="matrix" values="0 0 0 0 0 0 0 0 0 0 0 0 0 0 0 0 0 0 0.25 0"/>
<feBlend mode="normal" in2="BackgroundImageFix" result="effect1_dropShadow_409_236"/>
<feBlend mode="normal" in="SourceGraphic" in2="effect1_dropShadow_409_236" result="shape"/>
</filter>
<filter id="filter1_d_409_236" x="0" y="0" width="40" height="52.9673" filterUnits="userSpaceOnUse" color-interpolation-filters="sRGB">
<feFlood flood-opacity="0" result="BackgroundImageFix"/>
<feColorMatrix in="SourceAlpha" type="matrix" values="0 0 0 0 0 0 0 0 0 0 0 0 0 0 0 0 0 0 127 0" result="hardAlpha"/>
<feOffset dx="-4"/>
<feGaussianBlur stdDeviation="2"/>
<feComposite in2="hardAlpha" operator="out"/>
<feColorMatrix type="matrix" values="0 0 0 0 0 0 0 0 0 0 0 0 0 0 0 0 0 0 0.25 0"/>
<feBlend mode="normal" in2="BackgroundImageFix" result="effect1_dropShadow_409_236"/>
<feBlend mode="normal" in="SourceGraphic" in2="effect1_dropShadow_409_236" result="shape"/>
</filter>
</defs>
</svg>
