<svg width="100" height="100" viewBox="0 0 100 100" fill="none" xmlns="http://www.w3.org/2000/svg">
<rect width="100" height="100" rx="20" fill="#F5A2D8"/>
<path d="M40.9308 88.3345C39.6962 88.3994 38.4392 88.3533 37.1598 88.1962C35.0984 87.9431 33.1119 87.3745 31.2002 86.4904C29.2885 85.6063 27.6249 84.464 26.2095 83.0637C24.7941 81.6633 23.7335 80.0178 23.0276 78.1274C22.3305 76.1658 22.1571 74.0521 22.5075 71.7862C22.7344 69.9381 23.3036 68.2403 24.2151 66.6927C25.1267 65.1451 26.2608 63.8413 27.6176 62.7813C28.983 61.6503 30.5624 60.834 32.3556 60.3327C34.2199 59.8401 36.2183 59.7247 38.3507 59.9865C40.1988 60.2134 41.9808 60.6848 43.6967 61.4005C45.4214 62.0452 46.9552 62.7747 48.2983 63.589C48.4541 61.7321 48.5426 59.5423 48.5638 57.0196C48.5936 54.4258 48.5655 51.7166 48.4794 48.8921C48.3933 46.0676 48.2717 43.2387 48.1145 40.4055C47.966 37.5011 47.787 34.8456 47.5775 32.4388C47.4477 29.9697 47.3099 27.8604 47.1639 26.1108C47.018 24.3612 46.9088 23.1934 46.8365 22.6073C46.7816 21.879 46.8421 21.0928 47.0179 20.2485C47.2648 19.413 47.6495 18.6305 48.172 17.901C48.6945 17.1715 49.3105 16.5616 50.02 16.0715C50.8006 15.5902 51.6973 15.3395 52.7098 15.3195C54.2998 15.2983 55.9122 15.388 57.5471 15.5888C64.2287 16.4092 69.4257 18.7429 73.1382 22.5899C76.8594 26.3658 78.5492 31.4075 78.2077 37.715C78.108 40.8774 77.4397 43.9701 76.2027 46.9929C74.9657 50.0157 73.2218 52.7598 70.971 55.2253C70.0669 56.1244 69.0867 56.7616 68.0305 57.137C67.0454 57.5211 66.1263 57.6608 65.2733 57.5561C64.136 57.4164 63.2556 56.9476 62.6321 56.1495C62.0796 55.3601 62.0597 54.3476 62.5722 53.1117C64.066 49.7597 65.0443 46.2 65.5068 42.4327C65.629 41.4376 65.6714 40.5048 65.634 39.6344C65.6676 38.7727 65.6657 37.9067 65.6283 37.0362C65.3389 34.6918 64.504 32.6773 63.1235 30.9926C61.743 29.3079 59.9416 28.1126 57.7194 27.4069C57.9726 29.4582 58.1872 32.1181 58.3631 35.3866C58.6188 38.5927 58.7997 42.1143 58.9058 45.9514C59.0206 49.7174 59.0157 53.577 58.891 57.53C58.8375 61.4918 58.5969 65.2142 58.1693 68.6972C57.8376 71.3983 57.3588 73.8287 56.7328 75.9886C56.1156 78.0774 55.3244 79.8201 54.3592 81.2168C52.9776 83.0674 51.1557 84.6836 48.8936 86.0654C46.6403 87.3761 43.986 88.1324 40.9308 88.3345Z" fill="#F9F9F9"/>
</svg>
